<?xml version="1.0" encoding="UTF-8"?>
<svg xmlns="http://www.w3.org/2000/svg" xmlns:xlink="http://www.w3.org/1999/xlink" version="1.2" >
<font id="Boxed Light">
<font-face  font-family="Boxed" units-per-em="1000" ascent="750" descent="-207" font-style="normal" font-weight="300" font-stretch="normal" cap-height="700" x-height="546" underline-position="-75" underline-thickness="50" />
<missing-glyph  horiz-adv-x="340" d="" />
<glyph glyph-name="NULL" d="" />
<glyph glyph-name="CR" unicode="&#xd;" horiz-adv-x="340" d="" />
<glyph glyph-name="space" unicode="&#x20;" horiz-adv-x="340" d="" />
<glyph glyph-name="exclam" unicode="&#x21;" horiz-adv-x="244" d="M150 205 L150 720 L94 720 L94 205 L150 205 Z M150 0 L150 116 L94 116 L94 0 L150 0 Z " />
<glyph glyph-name="quotedbl" unicode="&#x22;" horiz-adv-x="305" d="M105 545 L111 758 L53 758 L60 545 L105 545 Z M246 545 L251 758 L193 758 L200 545 L246 545 Z " />
<glyph glyph-name="numbersign" unicode="&#x23;" horiz-adv-x="711" d="M174 0 L206 183 L454 183 L422 0 L480 0 L512 183 L640 183 L640 235 L521 235 L562 472 L674 472 L674 524 L571 524 L602 701 L544 701 L513 524 L265 524 L296 700 L239 700 L208 524 L70 524 L70 472 L199 472 L157 235 L36 235 L36 183 L148 183 L116 0 L174 0 Z M256 472 L504 472 L463 235 L215 235 L256 472 Z " />
<glyph glyph-name="dollar" unicode="&#x24;" horiz-adv-x="609" d="M70 200 L70 146 C70 64 150 -6 259 -6 L294 -6 L294 -112 L324 -112 L324 -6 L349 -6 C458 -6 539 50 539 138 L539 205 C539 286 427 331 324 373 L324 654 L339 654 C407 654 461 610 461 552 L461 499 L519 499 L519 562 C519 639 445 706 344 706 L324 706 L324 815 L294 815 L294 706 L251 706 C161 706 94 644 94 573 L94 510 C94 415 195 364 294 322 L294 46 L261 46 C186 46 128 93 128 155 L128 200 L70 200 Z M481 197 L481 148 C481 83 421 46 344 46 L324 46 L324 309 C407 275 481 244 481 197 L481 197 Z M152 513 L152 564 C152 615 200 654 259 654 L294 654 L294 386 C217 420 152 456 152 513 L152 513 Z " />
<glyph glyph-name="percent" unicode="&#x25;" horiz-adv-x="702" d="M157 422 C128 422 104 445 104 476 L104 606 C104 636 128 660 157 660 L195 660 C224 660 248 636 248 606 L248 476 C248 445 224 422 195 422 L157 422 Z M198 376 C257 376 298 420 298 471 L298 611 C298 662 257 706 198 706 L156 706 C96 706 53 662 53 611 L53 471 C53 420 96 376 156 376 L198 376 Z M255 0 L500 700 L445 700 L201 0 L255 0 Z M510 40 C480 40 456 63 456 94 L456 224 C456 254 480 278 510 278 L547 278 C577 278 601 254 601 224 L601 94 C601 63 577 40 547 40 L510 40 Z M550 -6 C610 -6 651 38 651 89 L651 229 C651 280 610 324 550 324 L508 324 C449 324 406 280 406 229 L406 89 C406 38 449 -6 508 -6 L550 -6 Z " />
<glyph glyph-name="ampersand" unicode="&#x26;" horiz-adv-x="641" d="M505 530 L505 573 C505 644 445 706 363 706 L254 706 C171 706 109 644 109 573 L109 497 C109 454 131 414 168 389 C116 365 83 317 83 263 L83 146 C83 64 153 -6 247 -6 L369 -6 C462 -6 530 64 530 146 L530 364 L604 364 L604 415 L255 415 C206 415 165 453 165 505 L165 565 C165 617 206 656 255 656 L359 656 C408 656 449 617 449 565 L449 530 L505 530 Z M365 44 L248 44 C188 44 140 92 140 154 L140 255 C140 317 188 364 248 364 L473 364 L473 154 C473 92 425 44 365 44 L365 44 Z " />
<glyph glyph-name="quotesingle" unicode="&#x27;" horiz-adv-x="164" d="M105 545 L111 758 L53 758 L60 545 L105 545 Z " />
<glyph glyph-name="parenleft" unicode="&#x28;" horiz-adv-x="301" d="M276 -56 L245 -56 C182 -56 130 -8 130 54 L130 546 C130 608 182 656 245 656 L276 656 L276 706 L245 706 C147 706 74 642 74 546 L74 54 C74 -42 147 -106 245 -106 L276 -106 L276 -56 Z " />
<glyph glyph-name="parenright" unicode="&#x29;" horiz-adv-x="301" d="M28 -106 L59 -106 C158 -106 231 -42 231 54 L231 546 C231 642 158 706 59 706 L28 706 L28 656 L59 656 C122 656 174 608 174 546 L174 54 C174 -8 122 -56 59 -56 L28 -56 L28 -106 Z " />
<glyph glyph-name="asterisk" unicode="&#x2a;" horiz-adv-x="499" d="M52 586 L206 536 L111 404 L153 372 L249 505 L346 372 L388 404 L294 536 L447 586 L431 637 L276 587 L276 750 L223 750 L223 587 L68 637 L52 586 Z " />
<glyph glyph-name="plus" unicode="&#x2b;" horiz-adv-x="431" d="M189 463 L189 329 L55 329 L55 276 L189 276 L189 142 L242 142 L242 276 L376 276 L376 329 L242 329 L242 463 L189 463 Z " />
<glyph glyph-name="comma" unicode="&#x2c;" horiz-adv-x="232" d="M38 -125 C97 -111 144 -69 144 0 L144 115 L89 115 L89 0 C89 -27 71 -58 38 -71 L38 -125 Z " />
<glyph glyph-name="hyphen" unicode="&#x2d;" horiz-adv-x="402" d="M344 330 L58 330 L58 279 L344 279 L344 330 Z " />
<glyph glyph-name="period" unicode="&#x2e;" horiz-adv-x="232" d="M89 115 L89 0 L144 0 L144 115 L89 115 Z " />
<glyph glyph-name="slash" unicode="&#x2f;" horiz-adv-x="565" d="M111 0 L501 700 L439 700 L49 0 L111 0 Z " />
<glyph glyph-name="zero" unicode="0" horiz-adv-x="611" d="M260 46 C198 46 149 93 149 155 L149 545 C149 607 198 654 260 654 L352 654 C413 654 462 607 462 545 L462 155 C462 93 413 46 352 46 L260 46 Z M357 -6 C451 -6 520 64 520 146 L520 554 C520 636 451 706 357 706 L257 706 C161 706 91 636 91 554 L91 146 C91 64 161 -6 257 -6 L357 -6 Z " />
<glyph glyph-name="one" unicode="1" horiz-adv-x="422" d="M182 700 L38 624 L38 573 L182 648 L182 52 L38 52 L38 0 L386 0 L386 52 L240 52 L240 700 L182 700 Z " />
<glyph glyph-name="two" unicode="2" horiz-adv-x="581" d="M398 408 C346 353 197 293 139 238 C102 203 78 161 78 106 L78 0 L508 0 L508 51 L138 51 L138 96 C138 140 153 171 178 196 C233 253 387 314 444 370 C476 401 497 438 497 486 L497 549 C497 634 427 706 332 706 L255 706 C160 706 90 636 90 554 L90 499 L148 499 L148 545 C148 607 197 654 259 654 L328 654 C390 654 439 607 439 545 L439 502 C439 462 423 434 398 408 L398 408 Z " />
<glyph glyph-name="three" unicode="3" horiz-adv-x="596" d="M513 154 L513 242 C513 297 476 347 419 371 C460 396 486 437 486 482 L486 567 C486 641 423 706 339 706 L262 706 C178 706 117 641 117 567 L117 526 L174 526 L174 558 C174 613 215 654 264 654 L334 654 C386 654 428 613 428 558 L428 490 C428 435 383 394 328 394 L267 394 L267 342 L333 342 C400 342 455 295 455 233 L455 163 C455 97 405 46 344 46 L252 46 C191 46 141 93 141 156 L141 193 L83 193 L83 147 C83 65 154 -5 250 -5 L349 -5 C444 -5 513 68 513 154 L513 154 Z " />
<glyph glyph-name="four" unicode="4" horiz-adv-x="523" d="M336 700 L50 240 L50 188 L336 188 L336 0 L394 0 L394 188 L493 188 L493 240 L394 240 L394 700 L336 700 Z M108 240 L336 606 L336 240 L108 240 Z " />
<glyph glyph-name="five" unicode="5" horiz-adv-x="596" d="M505 154 L505 280 C505 361 441 432 353 432 L186 432 L186 648 L473 648 L473 700 L128 700 L128 380 L348 380 C403 380 447 333 447 271 L447 163 C447 97 398 46 337 46 L260 46 C198 46 149 93 149 156 L149 193 L91 193 L91 147 C91 65 161 -5 257 -5 L342 -5 C436 -5 505 68 505 154 L505 154 Z " />
<glyph glyph-name="six" unicode="6" horiz-adv-x="611" d="M357 -6 C451 -6 520 64 520 146 L520 284 C520 366 451 436 357 436 L257 436 C219 436 180 417 149 390 L149 545 C149 607 198 654 260 654 L352 654 C413 654 462 607 462 545 L462 524 L520 524 L520 554 C520 636 451 706 357 706 L257 706 C161 706 91 636 91 554 L91 146 C91 64 161 -6 257 -6 L357 -6 Z M149 155 L149 275 C149 337 198 384 260 384 L352 384 C413 384 462 337 462 275 L462 155 C462 93 413 46 352 46 L260 46 C198 46 149 93 149 155 L149 155 Z " />
<glyph glyph-name="seven" unicode="7" horiz-adv-x="505" d="M53 653 L407 653 L83 0 L141 0 L465 653 L465 705 L53 705 L53 653 Z " />
<glyph glyph-name="eight" unicode="8" horiz-adv-x="596" d="M349 -6 C444 -6 513 64 513 146 L513 235 C513 293 475 345 418 369 C466 395 498 444 498 498 L498 554 C498 636 428 706 334 706 L262 706 C169 706 100 636 100 554 L100 498 C100 444 130 395 179 369 C121 345 83 293 83 235 L83 146 C83 64 154 -6 250 -6 L349 -6 Z M252 46 C191 46 141 93 141 155 L141 231 C141 293 191 340 252 340 L344 340 C405 340 455 293 455 231 L455 155 C455 93 405 46 344 46 L252 46 Z M440 501 C440 439 392 392 333 392 L265 392 C206 392 158 439 158 501 L158 545 C158 607 206 654 265 654 L333 654 C392 654 440 607 440 545 L440 501 Z " />
<glyph glyph-name="nine" unicode="9" horiz-adv-x="611" d="M255 706 C160 706 91 636 91 554 L91 416 C91 334 160 264 255 264 L354 264 C393 264 432 281 462 307 L462 155 C462 93 413 46 352 46 L260 46 C198 46 149 93 149 155 L149 176 L91 176 L91 146 C91 64 160 -6 255 -6 L354 -6 C450 -6 520 64 520 146 L520 554 C520 636 450 706 354 706 L255 706 Z M352 654 C413 654 462 607 462 545 L462 420 C462 361 411 316 352 316 L260 316 C198 316 149 363 149 425 L149 545 C149 607 198 654 260 654 L352 654 Z " />
<glyph glyph-name="colon" unicode="&#x3a;" horiz-adv-x="232" d="M89 115 L89 0 L144 0 L144 115 L89 115 Z M89 542 L89 427 L144 427 L144 542 L89 542 Z " />
<glyph glyph-name="semicolon" unicode="&#x3b;" horiz-adv-x="232" d="M144 542 L144 427 L89 427 L89 542 L144 542 Z M38 -125 C97 -111 144 -69 144 0 L144 115 L89 115 L89 0 C89 -27 71 -58 38 -71 L38 -125 Z " />
<glyph glyph-name="less" unicode="&#x3c;" horiz-adv-x="548" d="M55 301 L55 239 L493 55 L493 113 L114 270 L493 434 L493 491 L55 301 Z " />
<glyph glyph-name="equal" unicode="&#x3d;" horiz-adv-x="453" d="M413 387 L40 387 L40 337 L413 337 L413 387 Z M413 207 L40 207 L40 157 L413 157 L413 207 Z " />
<glyph glyph-name="greater" unicode="&#x3e;" horiz-adv-x="548" d="M493 301 L55 491 L55 434 L434 270 L55 113 L55 55 L493 239 L493 301 Z " />
<glyph glyph-name="question" unicode="&#x3f;" horiz-adv-x="528" d="M365 432 C341 398 266 355 234 322 C205 297 188 266 188 224 L188 168 L246 168 L246 209 C246 239 260 262 280 283 C310 314 379 357 406 390 C429 414 443 445 443 479 L443 554 C443 636 373 706 277 706 L198 706 C104 706 34 636 34 554 L34 490 L92 490 L92 545 C92 607 142 654 203 654 L275 654 C336 654 386 607 386 545 L386 488 C386 466 378 447 365 432 L365 432 Z M188 115 L188 0 L246 0 L246 115 L188 115 Z " />
<glyph glyph-name="at" unicode="&#x40;" horiz-adv-x="970" d="M236 -183 L683 -183 L683 -134 L244 -134 C186 -134 139 -88 139 -28 L139 578 C139 637 186 683 244 683 L726 683 C783 683 831 637 831 578 L831 155 C831 95 783 49 726 49 L670 49 L670 546 L411 546 C334 546 277 487 277 420 L277 120 C277 54 334 -6 411 -6 L476 -6 C528 -6 580 21 620 67 L630 0 L733 0 C821 0 886 68 886 148 L886 584 C886 665 821 732 733 732 L236 732 C148 732 84 665 84 584 L84 -35 C84 -115 149 -183 236 -183 L236 -183 Z M479 43 L418 43 C372 43 332 81 332 127 L332 413 C332 459 372 497 418 497 L615 497 L615 124 C583 74 530 43 479 43 L479 43 Z " />
<glyph glyph-name="A" unicode="A" horiz-adv-x="653" d="M298 705 L50 0 L109 0 L186 225 L466 225 L544 0 L603 0 L356 705 L298 705 Z M326 630 L448 277 L204 277 L326 630 Z " />
<glyph glyph-name="B" unicode="B" horiz-adv-x="628" d="M103 0 L393 0 C488 0 557 74 557 163 L557 220 C557 288 510 347 441 369 C483 396 510 439 510 487 L510 548 C510 630 440 700 346 700 L103 700 L103 0 Z M377 336 C445 336 499 287 499 222 L499 161 C499 99 450 52 388 52 L161 52 L161 336 L377 336 Z M341 648 C402 648 452 604 452 546 L452 489 C452 432 402 388 341 388 L161 388 L161 648 L341 648 Z " />
<glyph glyph-name="C" unicode="C" horiz-adv-x="635" d="M486 221 L486 155 C486 93 437 46 375 46 L260 46 C198 46 149 93 149 155 L149 545 C149 607 198 654 260 654 L375 654 C437 654 486 607 486 545 L486 484 L544 484 L544 554 C544 636 474 706 380 706 L257 706 C161 706 91 636 91 554 L91 146 C91 64 161 -6 257 -6 L380 -6 C474 -6 544 64 544 146 L544 221 L486 221 Z " />
<glyph glyph-name="D" unicode="D" horiz-adv-x="663" d="M103 0 L408 0 C503 0 572 70 572 152 L572 548 C572 630 503 700 408 700 L103 700 L103 0 Z M403 648 C465 648 514 601 514 539 L514 161 C514 99 465 52 403 52 L161 52 L161 648 L403 648 Z " />
<glyph glyph-name="E" unicode="E" horiz-adv-x="593" d="M503 52 L161 52 L161 340 L470 340 L470 391 L161 391 L161 649 L493 649 L493 700 L103 700 L103 0 L503 0 L503 52 Z " />
<glyph glyph-name="F" unicode="F" horiz-adv-x="573" d="M161 0 L161 323 L483 323 L483 374 L161 374 L161 649 L501 649 L501 700 L103 700 L103 0 L161 0 Z " />
<glyph glyph-name="G" unicode="G" horiz-adv-x="651" d="M560 484 L560 554 C560 636 491 706 396 706 L257 706 C161 706 91 636 91 554 L91 146 C91 64 161 -6 257 -6 L396 -6 C491 -6 560 64 560 146 L560 347 L320 347 L320 296 L502 296 L502 155 C502 93 453 46 391 46 L260 46 C198 46 149 93 149 155 L149 545 C149 607 198 654 260 654 L391 654 C453 654 502 607 502 545 L502 484 L560 484 Z " />
<glyph glyph-name="H" unicode="H" horiz-adv-x="675" d="M161 0 L161 335 L514 335 L514 0 L572 0 L572 701 L514 701 L514 387 L161 387 L161 700 L103 700 L103 0 L161 0 Z " />
<glyph glyph-name="I" unicode="I" horiz-adv-x="264" d="M161 0 L161 700 L103 700 L103 0 L161 0 Z " />
<glyph glyph-name="J" unicode="J" horiz-adv-x="283" d="M122 700 L122 -22 C122 -98 62 -156 -14 -156 L-52 -156 L-52 -207 L-14 -207 C96 -207 180 -131 180 -22 L180 700 L122 700 Z " />
<glyph glyph-name="K" unicode="K" horiz-adv-x="622" d="M161 0 L161 331 L281 331 L517 0 L584 0 L325 360 L537 700 L472 700 L275 383 L161 383 L161 700 L103 700 L103 0 L161 0 Z " />
<glyph glyph-name="L" unicode="L" horiz-adv-x="496" d="M466 52 L161 52 L161 700 L103 700 L103 0 L466 0 L466 52 Z " />
<glyph glyph-name="M" unicode="M" horiz-adv-x="808" d="M161 0 L161 589 L378 150 L430 150 L648 591 L648 0 L706 0 L706 700 L646 700 L405 213 L165 700 L103 700 L103 0 L161 0 Z " />
<glyph glyph-name="N" unicode="N" horiz-adv-x="675" d="M161 0 L161 599 L512 0 L572 0 L572 701 L514 701 L514 102 L163 700 L103 700 L103 0 L161 0 Z " />
<glyph glyph-name="O" unicode="O" horiz-adv-x="651" d="M260 46 C198 46 149 93 149 155 L149 545 C149 607 198 654 260 654 L391 654 C453 654 502 607 502 545 L502 155 C502 93 453 46 391 46 L260 46 Z M396 -6 C491 -6 560 64 560 146 L560 554 C560 636 491 706 396 706 L257 706 C161 706 91 636 91 554 L91 146 C91 64 161 -6 257 -6 L396 -6 Z " />
<glyph glyph-name="P" unicode="P" horiz-adv-x="605" d="M161 0 L161 265 L370 265 C464 265 533 338 533 415 L533 559 C533 638 460 700 358 700 L103 700 L103 0 L161 0 Z M353 648 C422 648 476 609 476 550 L476 425 C476 366 426 317 365 317 L161 317 L161 648 L353 648 Z " />
<glyph glyph-name="Q" unicode="Q" horiz-adv-x="651" d="M396 -6 C491 -6 560 64 560 146 L560 554 C560 636 491 706 396 706 L257 706 C161 706 91 636 91 554 L91 146 C91 64 161 -6 257 -6 L313 -6 L421 -204 L473 -180 L377 -6 L396 -6 Z M260 46 C198 46 149 93 149 155 L149 545 C149 607 198 654 260 654 L391 654 C453 654 502 607 502 545 L502 155 C502 93 453 46 391 46 L260 46 Z " />
<glyph glyph-name="R" unicode="R" horiz-adv-x="641" d="M161 0 L161 277 L350 277 L488 0 L550 0 L412 279 C492 291 548 354 548 415 L548 559 C548 638 475 700 373 700 L103 700 L103 0 L161 0 Z M368 648 C437 648 491 609 491 550 L491 424 C491 374 441 328 380 328 L161 328 L161 648 L368 648 Z " />
<glyph glyph-name="S" unicode="S" horiz-adv-x="609" d="M70 200 L70 146 C70 64 150 -6 259 -6 L349 -6 C458 -6 539 50 539 138 L539 205 C539 357 152 375 152 513 L152 564 C152 615 200 654 259 654 L339 654 C407 654 461 610 461 552 L461 499 L519 499 L519 562 C519 639 445 706 344 706 L251 706 C161 706 94 644 94 573 L94 510 C94 325 481 305 481 197 L481 148 C481 83 421 46 344 46 L261 46 C186 46 128 93 128 155 L128 200 L70 200 Z " />
<glyph glyph-name="T" unicode="T" horiz-adv-x="494" d="M280 0 L280 649 L467 649 L467 700 L26 700 L26 649 L222 649 L222 0 L280 0 Z " />
<glyph glyph-name="U" unicode="U" horiz-adv-x="655" d="M559 146 L559 700 L501 700 L501 155 C501 93 452 46 391 46 L264 46 C203 46 153 93 153 155 L153 700 L95 700 L95 146 C95 64 166 -6 262 -6 L396 -6 C490 -6 559 64 559 146 L559 146 Z " />
<glyph glyph-name="V" unicode="V" horiz-adv-x="653" d="M356 0 L603 700 L544 700 L327 74 L109 700 L50 700 L298 0 L356 0 Z " />
<glyph glyph-name="W" unicode="W" horiz-adv-x="1008" d="M321 0 L504 601 L687 0 L745 0 L958 700 L897 700 L716 83 L534 700 L474 700 L292 81 L111 700 L50 700 L263 0 L321 0 Z " />
<glyph glyph-name="X" unicode="X" horiz-adv-x="641" d="M509 700 L324 412 L136 700 L71 700 L289 366 L48 0 L112 0 L322 317 L529 0 L594 0 L357 361 L574 700 L509 700 Z " />
<glyph glyph-name="Y" unicode="Y" horiz-adv-x="616" d="M344 0 L344 292 L566 700 L507 700 L314 344 L111 700 L50 700 L286 292 L286 0 L344 0 Z " />
<glyph glyph-name="Z" unicode="Z" horiz-adv-x="581" d="M521 52 L128 52 L506 649 L506 700 L75 700 L75 649 L442 649 L60 52 L60 0 L521 0 L521 52 Z " />
<glyph glyph-name="bracketleft" unicode="&#x5b;" horiz-adv-x="286" d="M256 -62 L160 -62 L160 648 L248 648 L248 700 L103 700 L103 -114 L256 -114 L256 -62 Z " />
<glyph glyph-name="backslash" unicode="&#x5c;" horiz-adv-x="565" d="M501 0 L111 700 L49 700 L439 0 L501 0 Z " />
<glyph glyph-name="bracketright" unicode="&#x5d;" horiz-adv-x="286" d="M30 -114 L183 -114 L183 700 L38 700 L38 648 L126 648 L126 -62 L30 -62 L30 -114 Z " />
<glyph glyph-name="asciicircum" unicode="&#x5e;" horiz-adv-x="393" d="M166 749 L50 559 L109 559 L195 701 L284 559 L343 559 L224 749 L166 749 Z " />
<glyph glyph-name="underscore" unicode="&#x5f;" horiz-adv-x="421" d="M421 -61 L0 -61 L0 -111 L421 -111 L421 -61 Z " />
<glyph glyph-name="grave" unicode="&#x60;" horiz-adv-x="349" d="M52 714 L278 599 L297 640 L73 760 L52 714 Z " />
<glyph glyph-name="a" unicode="a" horiz-adv-x="567" d="M325 552 L257 552 C173 552 109 498 109 427 L109 399 L164 399 L164 424 C164 471 210 503 263 503 L320 503 C374 503 420 461 420 406 L420 333 L233 307 C155 296 82 254 82 183 L82 120 C82 54 140 -6 216 -6 L282 -6 C333 -6 385 21 425 66 L436 0 L475 0 L475 410 C475 487 411 552 325 552 L325 552 Z M284 43 L223 43 C177 43 137 80 137 125 L137 178 C137 219 185 251 238 259 L420 289 L420 122 C387 74 335 43 284 43 L284 43 Z " />
<glyph glyph-name="b" unicode="b" horiz-adv-x="572" d="M135 0 L144 58 C178 18 222 -6 269 -6 L338 -6 C425 -6 488 69 488 158 L488 389 C488 477 425 552 338 552 L272 552 C227 552 184 530 150 493 L150 750 L95 750 L95 0 L135 0 Z M266 503 L324 503 C383 503 433 453 433 388 L433 158 C433 93 384 43 324 43 L267 43 C221 43 179 71 150 117 L150 433 C179 475 220 503 266 503 L266 503 Z " />
<glyph glyph-name="c" unicode="c" horiz-adv-x="550" d="M466 378 L466 395 C466 480 399 552 308 552 L244 552 C151 552 83 480 83 395 L83 149 C83 65 151 -6 244 -6 L308 -6 C399 -6 466 65 466 149 L466 169 L411 169 L411 154 C411 91 361 43 301 43 L248 43 C188 43 138 91 138 154 L138 392 C138 455 188 503 248 503 L301 503 C361 503 411 455 411 392 L411 378 L466 378 Z " />
<glyph glyph-name="d" unicode="d" horiz-adv-x="572" d="M476 0 L476 750 L421 750 L421 494 C386 530 344 552 300 552 L233 552 C147 552 83 477 83 389 L83 158 C83 69 147 -6 233 -6 L302 -6 C349 -6 393 18 427 58 L437 0 L476 0 Z M305 43 L247 43 C188 43 138 93 138 158 L138 388 C138 453 188 503 248 503 L306 503 C350 503 393 475 421 434 L421 116 C391 70 349 43 305 43 L305 43 Z " />
<glyph glyph-name="e" unicode="e" horiz-adv-x="560" d="M476 395 C476 480 409 552 318 552 L244 552 C151 552 83 480 83 395 L83 149 C83 65 151 -6 244 -6 L318 -6 C409 -6 476 65 476 149 L476 158 L421 158 L421 154 C421 91 371 43 311 43 L248 43 C188 43 138 91 138 154 L138 257 L476 257 L476 395 Z M138 392 C138 455 188 503 248 503 L311 503 C371 503 421 455 421 392 L421 302 L138 302 L138 392 Z " />
<glyph glyph-name="f" unicode="f" horiz-adv-x="275" d="M150 0 L150 497 L263 497 L263 546 L150 546 L150 586 C150 650 204 702 267 702 L267 750 C170 750 95 683 95 586 L95 546 L28 546 L28 497 L95 497 L95 0 L150 0 Z " />
<glyph glyph-name="g" unicode="g" horiz-adv-x="572" d="M476 546 L437 546 L427 487 C392 527 348 552 300 552 L233 552 C147 552 83 477 83 389 L83 158 C83 69 147 -6 233 -6 L302 -6 C345 -6 387 15 421 51 L421 -50 C421 -113 370 -160 309 -160 L251 -160 C191 -160 143 -116 139 -60 L138 -52 L84 -57 L84 -65 C88 -143 158 -207 250 -207 L312 -207 C407 -207 476 -137 476 -55 L476 546 Z M305 43 L247 43 C187 43 138 93 138 158 L138 388 C138 453 188 503 248 503 L306 503 C351 503 393 476 421 432 L421 113 C392 70 349 43 305 43 L305 43 Z " />
<glyph glyph-name="h" unicode="h" horiz-adv-x="564" d="M472 0 L472 403 C472 491 411 552 321 552 L296 552 C243 552 190 527 150 487 L150 750 L95 750 L95 0 L150 0 L150 429 C182 475 236 503 288 503 L308 503 C368 503 417 466 417 402 L417 0 L472 0 Z " />
<glyph glyph-name="i" unicode="i" horiz-adv-x="246" d="M95 546 L95 0 L150 0 L150 546 L95 546 Z M95 750 L95 635 L150 635 L150 750 L95 750 Z " />
<glyph glyph-name="j" unicode="j" horiz-adv-x="247" d="M96 546 L96 -63 C96 -116 42 -159 -28 -159 L-28 -207 C77 -207 151 -149 151 -63 L151 546 L96 546 Z M95 750 L95 635 L150 635 L150 750 L95 750 Z " />
<glyph glyph-name="k" unicode="k" horiz-adv-x="519" d="M502 0 L264 314 L469 546 L402 546 L223 336 L150 336 L150 750 L95 750 L95 0 L150 0 L150 287 L223 287 L439 0 L502 0 Z " />
<glyph glyph-name="l" unicode="l" horiz-adv-x="246" d="M95 750 L95 0 L150 0 L150 750 L95 750 Z " />
<glyph glyph-name="m" unicode="m" horiz-adv-x="885" d="M472 0 L472 403 C472 411 471 419 470 427 C502 475 556 503 610 503 L629 503 C689 503 738 466 738 402 L738 0 L793 0 L793 403 C793 491 733 552 642 552 L617 552 C558 552 499 521 457 472 C433 521 384 552 321 552 L296 552 C241 552 186 525 145 482 L135 546 L95 546 L95 0 L150 0 L150 429 C182 475 236 503 288 503 L308 503 C368 503 417 466 417 402 L417 0 L472 0 Z " />
<glyph glyph-name="n" unicode="n" horiz-adv-x="564" d="M472 0 L472 403 C472 491 411 552 321 552 L296 552 C241 552 186 525 145 482 L135 546 L95 546 L95 0 L150 0 L150 429 C182 475 236 503 288 503 L308 503 C368 503 417 466 417 402 L417 0 L472 0 Z " />
<glyph glyph-name="o" unicode="o" horiz-adv-x="560" d="M248 43 C188 43 138 91 138 154 L138 392 C138 455 188 503 248 503 L311 503 C371 503 421 455 421 392 L421 154 C421 91 371 43 311 43 L248 43 Z M318 -6 C409 -6 476 65 476 149 L476 395 C476 480 409 552 318 552 L244 552 C151 552 83 480 83 395 L83 149 C83 65 151 -6 244 -6 L318 -6 Z " />
<glyph glyph-name="p" unicode="p" horiz-adv-x="572" d="M95 546 L95 -207 L150 -207 L150 52 C183 16 224 -6 269 -6 L338 -6 C425 -6 488 69 488 158 L488 389 C488 477 425 552 338 552 L272 552 C224 552 179 527 144 486 L135 546 L95 546 Z M266 503 L324 503 C383 503 433 453 433 388 L433 158 C433 93 384 43 324 43 L267 43 C221 43 179 71 150 117 L150 433 C179 475 220 503 266 503 L266 503 Z " />
<glyph glyph-name="q" unicode="q" horiz-adv-x="572" d="M437 546 L427 487 C392 527 347 552 300 552 L233 552 C147 552 83 477 83 389 L83 158 C83 69 147 -6 233 -6 L302 -6 C346 -6 387 15 421 51 L421 -207 L476 -207 L476 546 L437 546 Z M305 43 L247 43 C188 43 138 93 138 158 L138 388 C138 453 188 503 248 503 L306 503 C350 503 393 475 421 434 L421 116 C391 70 349 43 305 43 L305 43 Z " />
<glyph glyph-name="r" unicode="r" horiz-adv-x="369" d="M347 548 L305 548 C248 548 188 513 145 455 L135 546 L95 546 L95 0 L150 0 L150 390 C184 458 247 499 300 499 L347 499 L347 548 Z " />
<glyph glyph-name="s" unicode="s" horiz-adv-x="551" d="M416 116 C416 78 375 43 326 43 L234 43 C178 43 136 76 136 114 L136 143 L81 143 L81 112 C81 51 142 -6 229 -6 L328 -6 C409 -6 470 49 470 113 L470 165 C470 308 152 271 152 386 L152 433 C152 470 193 503 242 503 L301 503 C353 503 399 475 399 432 L399 404 L451 404 L451 433 C451 502 387 552 304 552 L237 552 C153 552 96 496 96 435 L96 380 C96 223 416 259 416 162 L416 116 Z " />
<glyph glyph-name="t" unicode="t" horiz-adv-x="309" d="M269 546 L155 546 L155 700 L116 700 L100 546 L25 546 L25 497 L100 497 L100 142 C100 52 162 -6 267 -6 L267 42 C202 42 155 88 155 142 L155 497 L269 497 L269 546 Z " />
<glyph glyph-name="u" unicode="u" horiz-adv-x="556" d="M92 546 L92 143 C92 55 152 -6 243 -6 L267 -6 C320 -6 371 19 411 60 L421 0 L460 0 L460 546 L405 546 L405 112 C373 68 323 43 275 43 L256 43 C196 43 147 80 147 144 L147 546 L92 546 Z " />
<glyph glyph-name="v" unicode="v" horiz-adv-x="485" d="M277 0 L462 546 L404 546 L245 67 L80 546 L23 546 L215 0 L277 0 Z " />
<glyph glyph-name="w" unicode="w" horiz-adv-x="796" d="M256 0 L398 466 L546 0 L608 0 L773 546 L716 546 L576 71 L427 546 L368 546 L224 71 L80 546 L23 546 L195 0 L256 0 Z " />
<glyph glyph-name="x" unicode="x" horiz-adv-x="532" d="M106 0 L266 233 L425 0 L488 0 L300 278 L477 546 L412 546 L267 326 L119 546 L55 546 L234 281 L44 0 L106 0 Z " />
<glyph glyph-name="y" unicode="y" horiz-adv-x="498" d="M207 -207 L474 546 L417 546 L251 79 L81 546 L24 546 L223 1 L150 -207 L207 -207 Z " />
<glyph glyph-name="z" unicode="z" horiz-adv-x="506" d="M434 546 L73 546 L73 497 L369 497 L62 49 L62 0 L451 0 L451 49 L126 49 L434 497 L434 546 Z " />
<glyph glyph-name="braceleft" unicode="&#x7b;" horiz-adv-x="352" d="M147 15 C147 -60 213 -108 303 -108 L308 -108 L308 -58 L303 -58 C248 -58 204 -26 204 15 L204 204 C204 240 180 276 147 299 C180 322 204 357 204 394 L204 583 C204 625 248 656 303 656 L308 656 L308 706 L303 706 C213 706 147 658 147 583 L147 397 C147 357 114 324 75 324 L42 324 L42 274 L70 274 C112 274 147 242 147 202 L147 15 Z " />
<glyph glyph-name="bar" unicode="&#x7c;" horiz-adv-x="262" d="M160 -230 L160 770 L103 770 L103 -230 L160 -230 Z " />
<glyph glyph-name="braceright" unicode="&#x7d;" horiz-adv-x="352" d="M206 202 C206 242 241 274 283 274 L311 274 L311 324 L278 324 C239 324 206 357 206 397 L206 583 C206 658 140 706 50 706 L45 706 L45 656 L50 656 C105 656 149 625 149 583 L149 394 C149 357 173 322 206 299 C173 276 149 240 149 204 L149 15 C149 -26 105 -58 50 -58 L45 -58 L45 -108 L50 -108 C140 -108 206 -60 206 15 L206 202 Z " />
<glyph glyph-name="asciitilde" unicode="&#x7e;" horiz-adv-x="430" d="M98 218 L98 250 C98 278 104 293 128 293 C171 293 243 223 317 223 C359 223 377 248 377 287 L377 343 L332 343 L332 301 C332 283 323 271 305 271 C245 271 180 342 116 342 C65 342 53 312 53 260 L53 218 L98 218 Z " />
<glyph glyph-name="exclamdown" unicode="&#xa1;" horiz-adv-x="244" d="M94 546 L94 430 L150 430 L150 546 L94 546 Z M94 341 L94 -170 L150 -170 L150 341 L94 341 Z " />
<glyph glyph-name="cent" unicode="&#xa2;" horiz-adv-x="557" d="M309 -154 L309 -6 L315 -6 C408 -6 476 64 476 146 L476 169 L421 169 L421 154 C421 91 371 43 311 43 L248 43 C188 43 138 91 138 154 L138 392 C138 455 188 503 248 503 L311 503 C371 503 421 455 421 392 L421 378 L476 378 L476 400 C476 482 408 552 315 552 L309 552 L309 699 L261 699 L261 552 L247 552 C153 552 83 482 83 400 L83 146 C83 64 153 -6 247 -6 L261 -6 L261 -154 L309 -154 Z " />
<glyph glyph-name="sterling" unicode="&#xa3;" horiz-adv-x="624" d="M495 164 L495 52 L176 52 L176 332 L341 332 L341 384 L176 384 L176 545 C176 607 225 654 287 654 L364 654 C425 654 475 607 475 545 L475 484 L533 484 L533 554 C533 636 463 706 369 706 L284 706 C188 706 118 636 118 554 L118 384 L32 384 L32 332 L118 332 L118 52 L32 52 L32 0 L553 0 L553 164 L495 164 Z " />
<glyph glyph-name="yen" unicode="&#xa5;" horiz-adv-x="616" d="M344 0 L344 132 L505 132 L505 182 L344 182 L344 284 L505 284 L505 335 L364 335 L566 700 L507 700 L314 351 L111 700 L50 700 L265 335 L112 335 L112 284 L286 284 L286 182 L112 182 L112 132 L286 132 L286 0 L344 0 Z " />
<glyph glyph-name="section" unicode="&#xa7;" horiz-adv-x="609" d="M534 170 L534 226 C534 385 149 402 149 538 L149 567 C149 617 197 654 256 654 L334 654 C403 654 457 610 457 552 L457 530 L514 530 L514 562 C514 639 440 706 337 706 L251 706 C159 706 91 644 91 573 L91 536 C91 496 109 465 138 438 C109 412 91 377 91 340 L91 284 C91 99 478 78 478 -30 L478 -57 C478 -119 418 -155 341 -155 L258 -155 C183 -155 125 -108 125 -46 L125 -23 L67 -23 L67 -55 C67 -137 147 -207 256 -207 L346 -207 C456 -207 536 -151 536 -63 L536 -26 C536 10 515 38 482 62 C515 88 534 125 534 170 L534 170 Z M476 226 L476 176 C476 139 458 112 428 95 C313 154 148 193 148 283 L148 334 C148 362 163 386 185 403 C299 334 476 300 476 226 L476 226 Z " />
<glyph glyph-name="dieresis" unicode="&#xa8;" horiz-adv-x="374" d="M53 754 L53 638 L109 638 L109 754 L53 754 Z M265 754 L265 638 L322 638 L322 754 L265 754 Z " />
<glyph glyph-name="copyright" unicode="&#xa9;" horiz-adv-x="822" d="M246 30 C181 30 129 83 129 147 L129 552 C129 617 181 671 246 671 L576 671 C640 671 693 617 693 552 L693 147 C693 83 640 30 576 30 L246 30 Z M576 -6 C660 -6 730 63 730 147 L730 552 C730 637 660 706 576 706 L246 706 C162 706 92 637 92 552 L92 147 C92 63 162 -6 246 -6 L576 -6 Z M527 265 L527 218 C527 179 496 146 456 146 L361 146 C322 146 290 179 290 218 L290 476 C290 514 322 547 361 547 L456 547 C496 547 527 514 527 476 L527 431 L564 431 L564 476 C564 535 515 584 456 584 L361 584 C302 584 253 535 253 476 L253 218 C253 158 302 110 361 110 L456 110 C515 110 564 158 564 218 L564 265 L527 265 Z " />
<glyph glyph-name="ordfeminine" unicode="&#xaa;" horiz-adv-x="310" d="M176 704 L139 704 C97 704 60 681 60 646 L60 628 L101 628 L101 642 C101 654 117 665 137 665 L177 665 C197 665 214 650 214 631 L214 593 L124 580 C83 574 47 551 47 518 L47 487 C47 452 81 420 121 420 L148 420 C171 420 197 432 219 452 L226 423 L255 423 L255 634 C255 672 218 704 176 704 L176 704 Z M152 459 L123 459 C103 459 87 473 87 490 L87 514 C87 528 104 539 125 542 L214 557 L214 491 C194 470 171 459 152 459 L152 459 Z " />
<glyph glyph-name="guillemotleft" unicode="&#xab;" horiz-adv-x="684" d="M61 239 L364 48 L364 107 L108 269 L364 432 L364 491 L61 299 L61 239 Z M311 239 L614 48 L614 107 L358 269 L614 432 L614 491 L311 299 L311 239 Z " />
<glyph glyph-name="registered" unicode="&#xae;" horiz-adv-x="822" d="M576 -6 C660 -6 730 63 730 147 L730 552 C730 637 660 706 576 706 L246 706 C162 706 92 637 92 552 L92 147 C92 63 162 -6 246 -6 L576 -6 Z M246 30 C181 30 129 83 129 147 L129 552 C129 617 181 671 246 671 L576 671 C640 671 693 617 693 552 L693 147 C693 83 640 30 576 30 L246 30 Z M302 110 L302 303 L427 303 L526 110 L569 110 L469 304 C523 311 565 357 565 401 L565 482 C565 541 512 584 445 584 L264 584 L264 110 L302 110 Z M445 547 C492 547 528 520 528 482 L528 401 C528 371 495 339 455 339 L302 339 L302 547 L445 547 Z " />
<glyph glyph-name="macron" unicode="&#xaf;" horiz-adv-x="432" d="M359 720 L73 720 L73 670 L359 670 L359 720 Z " />
<glyph glyph-name="degree" unicode="&#xb0;" horiz-adv-x="389" d="M238 402 C299 402 340 444 340 492 L340 617 C340 664 299 706 238 706 L153 706 C92 706 49 664 49 617 L49 492 C49 444 92 402 153 402 L238 402 Z M155 657 L235 657 C262 657 285 638 285 611 L285 497 C285 471 262 452 235 452 L155 452 C127 452 104 471 104 497 L104 611 C104 638 127 657 155 657 L155 657 Z " />
<glyph glyph-name="twosuperior" unicode="&#xb2;" horiz-adv-x="350" d="M292 580 L292 614 C292 664 252 706 196 706 L154 706 C100 706 59 665 59 616 L59 579 L105 579 L105 612 C105 641 127 663 156 663 L194 663 C223 663 247 641 247 612 L247 588 C247 570 238 556 227 545 C188 504 127 491 88 453 C66 432 53 409 53 376 L53 311 L297 311 L297 354 L99 354 C99 357 101 377 103 379 C105 398 121 415 141 432 C178 466 231 480 261 511 C281 529 292 552 292 580 L292 580 Z " />
<glyph glyph-name="threesuperior" unicode="&#xb3;" horiz-adv-x="352" d="M299 401 L299 447 C299 475 278 503 249 517 C270 531 285 552 285 575 L285 624 C285 666 248 706 198 706 L156 706 C107 706 71 666 71 624 L71 594 L118 594 L118 619 C118 643 135 663 158 663 L195 663 C219 663 239 643 239 619 L239 580 C239 555 219 537 196 537 L152 537 L152 493 L197 493 C228 493 254 470 254 442 L254 405 C254 375 230 350 201 350 L151 350 C123 350 99 372 99 402 L99 430 L53 430 L53 397 C53 349 95 307 150 307 L203 307 C259 307 299 351 299 401 L299 401 Z " />
<glyph glyph-name="acute" unicode="&#xb4;" horiz-adv-x="349" d="M276 760 L52 640 L71 599 L297 714 L276 760 Z " />
<glyph glyph-name="mu" unicode="&#xb5;" horiz-adv-x="576" d="M95 546 L95 -207 L150 -207 L150 22 C174 4 206 -6 243 -6 L281 -6 C336 -6 390 20 432 63 L442 0 L481 0 L481 546 L426 546 L426 116 C394 70 341 43 292 43 L259 43 C200 43 150 80 150 144 L150 546 L95 546 Z " />
<glyph glyph-name="paragraph" unicode="&#xb6;" horiz-adv-x="743" d="M464 -176 L464 649 L549 649 L549 -176 L607 -176 L607 649 L678 649 L678 700 L247 700 C145 700 72 638 72 559 L72 423 C72 346 141 273 235 273 L407 273 L407 -176 L464 -176 Z " />
<glyph glyph-name="periodcentered" unicode="&#xb7;" horiz-adv-x="232" d="M89 347 L89 232 L144 232 L144 347 L89 347 Z " />
<glyph glyph-name="cedilla" unicode="&#xb8;" horiz-adv-x="262" d="M116 4 L82 -80 L115 -80 C150 -80 169 -106 169 -128 C169 -153 149 -171 100 -171 L56 -171 L56 -207 L99 -207 C178 -207 207 -173 207 -128 C207 -90 180 -54 134 -49 L156 4 L116 4 Z " />
<glyph glyph-name="onesuperior" unicode="&#xb9;" horiz-adv-x="307" d="M134 702 L53 658 L53 613 L130 654 L130 354 L53 354 L53 311 L254 311 L254 354 L176 354 L176 702 L134 702 Z " />
<glyph glyph-name="ordmasculine" unicode="&#xba;" horiz-adv-x="310" d="M176 420 C218 420 255 452 255 489 L255 634 C255 672 218 704 176 704 L126 704 C83 704 47 672 47 634 L47 489 C47 452 83 420 126 420 L176 420 Z M126 665 L176 665 C197 665 214 649 214 631 L214 493 C214 475 197 460 176 460 L126 460 C104 460 87 475 87 493 L87 631 C87 649 104 665 126 665 L126 665 Z " />
<glyph glyph-name="guillemotright" unicode="&#xbb;" horiz-adv-x="684" d="M373 299 L70 491 L70 432 L326 269 L70 107 L70 48 L373 239 L373 299 Z M623 299 L320 491 L320 432 L576 269 L320 107 L320 48 L623 239 L623 299 Z " />
<glyph glyph-name="onequarter" unicode="&#xbc;" horiz-adv-x="728" d="M577 391 L419 140 L419 101 L575 101 L575 0 L622 0 L622 101 L675 101 L675 144 L622 144 L622 391 L577 391 Z M470 144 L575 313 L575 144 L470 144 Z M271 0 L524 700 L469 700 L216 0 L271 0 Z M134 702 L53 658 L53 613 L130 654 L130 354 L53 354 L53 311 L254 311 L254 354 L176 354 L176 702 L134 702 Z " />
<glyph glyph-name="onehalf" unicode="&#xbd;" horiz-adv-x="767" d="M277 0 L530 700 L475 700 L223 0 L277 0 Z M709 269 L709 303 C709 353 669 395 613 395 L571 395 C517 395 476 354 476 305 L476 268 L522 268 L522 301 C522 330 544 352 573 352 L611 352 C640 352 664 330 664 301 L664 277 C664 259 655 245 644 234 C605 193 544 180 505 142 C483 121 470 98 470 65 L470 0 L714 0 L714 43 L516 43 C516 46 518 66 520 68 C522 87 538 104 558 121 C595 155 648 169 678 200 C698 218 709 241 709 269 L709 269 Z M134 702 L53 658 L53 613 L130 654 L130 354 L53 354 L53 311 L254 311 L254 354 L176 354 L176 702 L134 702 Z " />
<glyph glyph-name="threequarters" unicode="&#xbe;" horiz-adv-x="757" d="M606 391 L448 140 L448 101 L604 101 L604 0 L651 0 L651 101 L704 101 L704 144 L651 144 L651 391 L606 391 Z M499 144 L604 313 L604 144 L499 144 Z M300 0 L553 700 L498 700 L245 0 L300 0 Z M299 401 L299 447 C299 475 278 503 249 517 C270 531 285 552 285 575 L285 624 C285 666 248 706 198 706 L156 706 C107 706 71 666 71 624 L71 594 L118 594 L118 619 C118 643 135 663 158 663 L195 663 C219 663 239 643 239 619 L239 580 C239 555 219 537 196 537 L152 537 L152 493 L197 493 C228 493 254 470 254 442 L254 405 C254 375 230 350 201 350 L151 350 C123 350 99 372 99 402 L99 430 L53 430 L53 397 C53 349 95 307 150 307 L203 307 C259 307 299 351 299 401 L299 401 Z " />
<glyph glyph-name="questiondown" unicode="&#xbf;" horiz-adv-x="528" d="M85 -8 C85 -90 155 -160 251 -160 L330 -160 C425 -160 494 -90 494 -8 L494 56 L436 56 L436 1 C436 -61 387 -108 325 -108 L254 -108 C192 -108 143 -61 143 1 L143 58 C143 80 150 99 163 115 C188 148 262 191 295 223 C323 249 341 281 341 322 L341 378 L282 378 L282 337 C282 307 268 284 248 263 C218 232 150 189 122 156 C99 132 85 102 85 67 L85 -8 Z M340 431 L340 546 L282 546 L282 431 L340 431 Z " />
<glyph glyph-name="Agrave" unicode="&#xc0;" horiz-adv-x="653" d="M298 705 L50 0 L109 0 L186 225 L466 225 L544 0 L603 0 L356 705 L298 705 Z M326 630 L448 277 L204 277 L326 630 Z M210 850 L428 765 L448 812 L232 902 L210 850 Z " />
<glyph glyph-name="Aacute" unicode="&#xc1;" horiz-adv-x="653" d="M298 705 L50 0 L109 0 L186 225 L466 225 L544 0 L603 0 L356 705 L298 705 Z M326 630 L448 277 L204 277 L326 630 Z M430 902 L214 812 L234 765 L452 850 L430 902 Z " />
<glyph glyph-name="Acircumflex" unicode="&#xc2;" horiz-adv-x="653" d="M298 705 L50 0 L109 0 L186 225 L466 225 L544 0 L603 0 L356 705 L298 705 Z M326 630 L448 277 L204 277 L326 630 Z M320 902 L179 813 L201 768 L326 846 L453 768 L475 816 L334 902 L320 902 Z " />
<glyph glyph-name="Atilde" unicode="&#xc3;" horiz-adv-x="653" d="M298 705 L50 0 L109 0 L186 225 L466 225 L544 0 L603 0 L356 705 L298 705 Z M326 630 L448 277 L204 277 L326 630 Z M215 777 L215 790 C215 816 220 831 239 831 C282 831 346 773 410 773 C453 773 472 798 472 837 L472 878 L424 878 L424 852 C424 835 416 824 399 824 C338 824 284 883 228 883 C179 883 167 853 167 800 L167 777 L215 777 Z " />
<glyph glyph-name="Adieresis" unicode="&#xc4;" horiz-adv-x="653" d="M298 705 L50 0 L109 0 L186 225 L466 225 L544 0 L603 0 L356 705 L298 705 Z M326 630 L448 277 L204 277 L326 630 Z M191 891 L191 776 L251 776 L251 891 L191 891 Z M400 891 L400 776 L459 776 L459 891 L400 891 Z " />
<glyph glyph-name="Aring" unicode="&#xc5;" horiz-adv-x="653" d="M223 780 L223 764 C223 724 248 688 287 674 L50 0 L109 0 L186 225 L466 225 L544 0 L603 0 L367 672 C408 685 436 722 436 764 L436 780 C436 832 393 877 335 877 L325 877 C266 877 223 832 223 780 L223 780 Z M326 630 L448 277 L204 277 L326 630 Z M391 766 C391 733 364 706 332 706 L326 706 C295 706 267 733 267 766 L267 777 C267 811 295 838 326 838 L332 838 C364 838 391 811 391 777 L391 766 Z " />
<glyph glyph-name="AE" unicode="&#xc6;" horiz-adv-x="936" d="M846 52 L504 52 L504 340 L813 340 L813 391 L504 391 L504 649 L836 649 L836 700 L434 700 L48 0 L111 0 L233 223 L446 223 L446 0 L846 0 L846 52 Z M262 275 L446 610 L446 275 L262 275 Z " />
<glyph glyph-name="Ccedilla" unicode="&#xc7;" horiz-adv-x="635" d="M486 221 L486 155 C486 93 437 46 375 46 L260 46 C198 46 149 93 149 155 L149 545 C149 607 198 654 260 654 L375 654 C437 654 486 607 486 545 L486 484 L544 484 L544 554 C544 636 474 706 380 706 L257 706 C161 706 91 636 91 554 L91 146 C91 64 161 -6 257 -6 L302 -6 L272 -80 L305 -80 C340 -80 359 -106 359 -128 C359 -153 339 -171 290 -171 L246 -171 L246 -207 L289 -207 C368 -207 397 -173 397 -128 C397 -90 370 -54 324 -49 L342 -6 L380 -6 C474 -6 544 64 544 146 L544 221 L486 221 Z " />
<glyph glyph-name="Egrave" unicode="&#xc8;" horiz-adv-x="593" d="M503 52 L161 52 L161 340 L470 340 L470 391 L161 391 L161 649 L493 649 L493 700 L103 700 L103 0 L503 0 L503 52 Z M176 850 L394 765 L414 812 L198 902 L176 850 Z " />
<glyph glyph-name="Eacute" unicode="&#xc9;" horiz-adv-x="593" d="M503 52 L161 52 L161 340 L470 340 L470 391 L161 391 L161 649 L493 649 L493 700 L103 700 L103 0 L503 0 L503 52 Z M407 902 L191 812 L211 765 L429 850 L407 902 Z " />
<glyph glyph-name="Ecircumflex" unicode="&#xca;" horiz-adv-x="593" d="M503 52 L161 52 L161 340 L470 340 L470 391 L161 391 L161 649 L493 649 L493 700 L103 700 L103 0 L503 0 L503 52 Z M296 902 L155 813 L177 768 L302 846 L429 768 L451 816 L310 902 L296 902 Z " />
<glyph glyph-name="Edieresis" unicode="&#xcb;" horiz-adv-x="593" d="M503 52 L161 52 L161 340 L470 340 L470 391 L161 391 L161 649 L493 649 L493 700 L103 700 L103 0 L503 0 L503 52 Z M171 891 L171 776 L231 776 L231 891 L171 891 Z M380 891 L380 776 L439 776 L439 891 L380 891 Z " />
<glyph glyph-name="Igrave" unicode="&#xcc;" horiz-adv-x="264" d="M161 0 L161 700 L103 700 L103 0 L161 0 Z M16 850 L234 765 L254 812 L38 902 L16 850 Z " />
<glyph glyph-name="Iacute" unicode="&#xcd;" horiz-adv-x="264" d="M161 0 L161 700 L103 700 L103 0 L161 0 Z M236 902 L20 812 L40 765 L258 850 L236 902 Z " />
<glyph glyph-name="Icircumflex" unicode="&#xce;" horiz-adv-x="264" d="M161 0 L161 700 L103 700 L103 0 L161 0 Z M126 902 L-15 813 L7 768 L132 846 L259 768 L281 816 L140 902 L126 902 Z " />
<glyph glyph-name="Idieresis" unicode="&#xcf;" horiz-adv-x="264" d="M161 0 L161 700 L103 700 L103 0 L161 0 Z M-4 891 L-4 776 L56 776 L56 891 L-4 891 Z M205 891 L205 776 L264 776 L264 891 L205 891 Z " />
<glyph glyph-name="Eth" unicode="&#xd0;" horiz-adv-x="663" d="M103 0 L408 0 C503 0 572 70 572 152 L572 548 C572 630 503 700 408 700 L103 700 L103 393 L19 393 L19 342 L103 342 L103 0 Z M341 393 L161 393 L161 648 L403 648 C465 648 514 601 514 539 L514 161 C514 99 465 52 403 52 L161 52 L161 342 L341 342 L341 393 Z " />
<glyph glyph-name="Ntilde" unicode="&#xd1;" horiz-adv-x="675" d="M161 0 L161 599 L512 0 L572 0 L572 701 L514 701 L514 102 L163 700 L103 700 L103 0 L161 0 Z M236 777 L236 790 C236 816 241 831 260 831 C303 831 367 773 431 773 C474 773 493 798 493 837 L493 878 L445 878 L445 852 C445 835 437 824 420 824 C359 824 305 883 249 883 C200 883 188 853 188 800 L188 777 L236 777 Z " />
<glyph glyph-name="Ograve" unicode="&#xd2;" horiz-adv-x="651" d="M198 853 L416 768 L436 815 L220 905 L198 853 Z M260 46 C198 46 149 93 149 155 L149 545 C149 607 198 654 260 654 L391 654 C453 654 502 607 502 545 L502 155 C502 93 453 46 391 46 L260 46 Z M396 -6 C491 -6 560 64 560 146 L560 554 C560 636 491 706 396 706 L257 706 C161 706 91 636 91 554 L91 146 C91 64 161 -6 257 -6 L396 -6 Z " />
<glyph glyph-name="Oacute" unicode="&#xd3;" horiz-adv-x="651" d="M443 905 L227 815 L247 768 L465 853 L443 905 Z M260 46 C198 46 149 93 149 155 L149 545 C149 607 198 654 260 654 L391 654 C453 654 502 607 502 545 L502 155 C502 93 453 46 391 46 L260 46 Z M396 -6 C491 -6 560 64 560 146 L560 554 C560 636 491 706 396 706 L257 706 C161 706 91 636 91 554 L91 146 C91 64 161 -6 257 -6 L396 -6 Z " />
<glyph glyph-name="Ocircumflex" unicode="&#xd4;" horiz-adv-x="651" d="M320 905 L179 816 L201 771 L326 849 L453 771 L475 819 L334 905 L320 905 Z M260 46 C198 46 149 93 149 155 L149 545 C149 607 198 654 260 654 L391 654 C453 654 502 607 502 545 L502 155 C502 93 453 46 391 46 L260 46 Z M396 -6 C491 -6 560 64 560 146 L560 554 C560 636 491 706 396 706 L257 706 C161 706 91 636 91 554 L91 146 C91 64 161 -6 257 -6 L396 -6 Z " />
<glyph glyph-name="Otilde" unicode="&#xd5;" horiz-adv-x="651" d="M260 46 C198 46 149 93 149 155 L149 545 C149 607 198 654 260 654 L391 654 C453 654 502 607 502 545 L502 155 C502 93 453 46 391 46 L260 46 Z M396 -6 C491 -6 560 64 560 146 L560 554 C560 636 491 706 396 706 L257 706 C161 706 91 636 91 554 L91 146 C91 64 161 -6 257 -6 L396 -6 Z M215 780 L215 793 C215 819 220 834 239 834 C282 834 346 776 410 776 C453 776 472 801 472 840 L472 881 L424 881 L424 855 C424 838 416 827 399 827 C338 827 284 886 228 886 C179 886 167 856 167 803 L167 780 L215 780 Z " />
<glyph glyph-name="Odieresis" unicode="&#xd6;" horiz-adv-x="651" d="M260 46 C198 46 149 93 149 155 L149 545 C149 607 198 654 260 654 L391 654 C453 654 502 607 502 545 L502 155 C502 93 453 46 391 46 L260 46 Z M396 -6 C491 -6 560 64 560 146 L560 554 C560 636 491 706 396 706 L257 706 C161 706 91 636 91 554 L91 146 C91 64 161 -6 257 -6 L396 -6 Z M191 894 L191 779 L251 779 L251 894 L191 894 Z M400 894 L400 779 L459 779 L459 894 L400 894 Z " />
<glyph glyph-name="multiply" unicode="&#xd7;" horiz-adv-x="467" d="M68 140 L238 309 L408 140 L444 175 L274 345 L444 515 L408 551 L238 381 L68 551 L32 515 L202 345 L32 175 L68 140 Z " />
<glyph glyph-name="Oslash" unicode="&#xd8;" horiz-adv-x="651" d="M101 -100 L166 17 C192 2 223 -6 257 -6 L396 -6 C491 -6 560 64 560 146 L560 554 C560 592 545 627 520 654 L600 798 L557 798 L490 679 C464 696 432 706 396 706 L257 706 C161 706 91 636 91 554 L91 146 C91 105 108 68 137 40 L59 -100 L101 -100 Z M149 155 L149 545 C149 607 198 654 260 654 L391 654 C418 654 443 645 463 629 L167 94 C155 111 149 132 149 155 L149 155 Z M260 46 C235 46 212 53 194 66 L488 597 C497 582 502 564 502 545 L502 155 C502 93 453 46 391 46 L260 46 Z " />
<glyph glyph-name="Ugrave" unicode="&#xd9;" horiz-adv-x="655" d="M182 850 L400 765 L420 812 L204 902 L182 850 Z M559 146 L559 700 L501 700 L501 155 C501 93 452 46 391 46 L264 46 C203 46 153 93 153 155 L153 700 L95 700 L95 146 C95 64 166 -6 262 -6 L396 -6 C490 -6 559 64 559 146 L559 146 Z " />
<glyph glyph-name="Uacute" unicode="&#xda;" horiz-adv-x="655" d="M559 146 L559 700 L501 700 L501 155 C501 93 452 46 391 46 L264 46 C203 46 153 93 153 155 L153 700 L95 700 L95 146 C95 64 166 -6 262 -6 L396 -6 C490 -6 559 64 559 146 L559 146 Z M464 902 L248 812 L268 765 L486 850 L464 902 Z " />
<glyph glyph-name="Ucircumflex" unicode="&#xdb;" horiz-adv-x="655" d="M322 902 L181 813 L203 768 L328 846 L455 768 L477 816 L336 902 L322 902 Z M559 146 L559 700 L501 700 L501 155 C501 93 452 46 391 46 L264 46 C203 46 153 93 153 155 L153 700 L95 700 L95 146 C95 64 166 -6 262 -6 L396 -6 C490 -6 559 64 559 146 L559 146 Z " />
<glyph glyph-name="Udieresis" unicode="&#xdc;" horiz-adv-x="655" d="M559 146 L559 700 L501 700 L501 155 C501 93 452 46 391 46 L264 46 C203 46 153 93 153 155 L153 700 L95 700 L95 146 C95 64 166 -6 262 -6 L396 -6 C490 -6 559 64 559 146 L559 146 Z M193 891 L193 776 L253 776 L253 891 L193 891 Z M402 891 L402 776 L461 776 L461 891 L402 891 Z " />
<glyph glyph-name="Yacute" unicode="&#xdd;" horiz-adv-x="616" d="M344 0 L344 292 L566 700 L507 700 L314 344 L111 700 L50 700 L286 292 L286 0 L344 0 Z M418 902 L202 812 L222 765 L440 850 L418 902 Z " />
<glyph glyph-name="Thorn" unicode="&#xde;" horiz-adv-x="605" d="M161 0 L161 140 L370 140 C464 140 533 212 533 290 L533 433 C533 512 460 574 358 574 L161 574 L161 700 L103 700 L103 0 L161 0 Z M353 523 C422 523 476 483 476 424 L476 299 C476 241 426 191 365 191 L161 191 L161 523 L353 523 Z " />
<glyph glyph-name="germandbls" unicode="&#xdf;" horiz-adv-x="564" d="M290 384 L290 361 C290 252 430 234 430 154 L430 142 C430 92 388 49 338 49 L243 49 L243 0 L338 0 C418 0 484 64 484 141 L484 157 C484 270 344 283 344 364 L344 386 C344 453 427 466 427 549 L427 561 C427 641 361 706 281 706 L229 706 C149 706 85 641 85 561 L85 0 L140 0 L140 557 C140 612 184 657 237 657 L276 657 C329 657 372 613 372 561 L372 550 C372 490 290 471 290 384 L290 384 Z " />
<glyph glyph-name="agrave" unicode="&#xe0;" horiz-adv-x="567" d="M325 552 L257 552 C173 552 109 498 109 427 L109 399 L164 399 L164 424 C164 471 210 503 263 503 L320 503 C374 503 420 461 420 406 L420 333 L233 307 C155 296 82 254 82 183 L82 120 C82 54 140 -6 216 -6 L282 -6 C333 -6 385 21 425 66 L436 0 L475 0 L475 410 C475 487 411 552 325 552 L325 552 Z M284 43 L223 43 C177 43 137 80 137 125 L137 178 C137 219 185 251 238 259 L420 289 L420 122 C387 74 335 43 284 43 L284 43 Z M164 714 L390 599 L409 640 L185 760 L164 714 Z " />
<glyph glyph-name="aacute" unicode="&#xe1;" horiz-adv-x="567" d="M325 552 L257 552 C173 552 109 498 109 427 L109 399 L164 399 L164 424 C164 471 210 503 263 503 L320 503 C374 503 420 461 420 406 L420 333 L233 307 C155 296 82 254 82 183 L82 120 C82 54 140 -6 216 -6 L282 -6 C333 -6 385 21 425 66 L436 0 L475 0 L475 410 C475 487 411 552 325 552 L325 552 Z M284 43 L223 43 C177 43 137 80 137 125 L137 178 C137 219 185 251 238 259 L420 289 L420 122 C387 74 335 43 284 43 L284 43 Z M401 760 L177 640 L196 599 L422 714 L401 760 Z " />
<glyph glyph-name="acircumflex" unicode="&#xe2;" horiz-adv-x="567" d="M325 552 L257 552 C173 552 109 498 109 427 L109 399 L164 399 L164 424 C164 471 210 503 263 503 L320 503 C374 503 420 461 420 406 L420 333 L233 307 C155 296 82 254 82 183 L82 120 C82 54 140 -6 216 -6 L282 -6 C333 -6 385 21 425 66 L436 0 L475 0 L475 410 C475 487 411 552 325 552 L325 552 Z M284 43 L223 43 C177 43 137 80 137 125 L137 178 C137 219 185 251 238 259 L420 289 L420 122 C387 74 335 43 284 43 L284 43 Z M284 746 L159 639 L181 600 L291 691 L402 600 L423 641 L298 746 L284 746 Z " />
<glyph glyph-name="atilde" unicode="&#xe3;" horiz-adv-x="567" d="M325 552 L257 552 C173 552 109 498 109 427 L109 399 L164 399 L164 424 C164 471 210 503 263 503 L320 503 C374 503 420 461 420 406 L420 333 L233 307 C155 296 82 254 82 183 L82 120 C82 54 140 -6 216 -6 L282 -6 C333 -6 385 21 425 66 L436 0 L475 0 L475 410 C475 487 411 552 325 552 L325 552 Z M284 43 L223 43 C177 43 137 80 137 125 L137 178 C137 219 185 251 238 259 L420 289 L420 122 C387 74 335 43 284 43 L284 43 Z M182 634 L182 645 C182 673 187 688 208 688 C248 688 313 630 380 630 C422 630 440 654 440 693 L440 732 L395 732 L395 707 C395 689 386 678 368 678 C310 678 253 737 196 737 C148 737 137 707 137 655 L137 634 L182 634 Z " />
<glyph glyph-name="adieresis" unicode="&#xe4;" horiz-adv-x="567" d="M325 552 L257 552 C173 552 109 498 109 427 L109 399 L164 399 L164 424 C164 471 210 503 263 503 L320 503 C374 503 420 461 420 406 L420 333 L233 307 C155 296 82 254 82 183 L82 120 C82 54 140 -6 216 -6 L282 -6 C333 -6 385 21 425 66 L436 0 L475 0 L475 410 C475 487 411 552 325 552 L325 552 Z M284 43 L223 43 C177 43 137 80 137 125 L137 178 C137 219 185 251 238 259 L420 289 L420 122 C387 74 335 43 284 43 L284 43 Z M360 754 L360 638 L417 638 L417 754 L360 754 Z M148 754 L148 638 L204 638 L204 754 L148 754 Z " />
<glyph glyph-name="aring" unicode="&#xe5;" horiz-adv-x="567" d="M325 552 L257 552 C173 552 109 498 109 427 L109 399 L164 399 L164 424 C164 471 210 503 263 503 L320 503 C374 503 420 461 420 406 L420 333 L233 307 C155 296 82 254 82 183 L82 120 C82 54 140 -6 216 -6 L282 -6 C333 -6 385 21 425 66 L436 0 L475 0 L475 410 C475 487 411 552 325 552 L325 552 Z M284 43 L223 43 C177 43 137 80 137 125 L137 178 C137 219 185 251 238 259 L420 289 L420 122 C387 74 335 43 284 43 L284 43 Z M184 719 L184 703 C184 652 227 606 286 606 L296 606 C354 606 397 652 397 703 L397 719 C397 771 354 817 296 817 L286 817 C227 817 184 771 184 719 L184 719 Z M352 706 C352 672 325 645 293 645 L287 645 C256 645 228 672 228 706 L228 717 C228 751 256 777 287 777 L293 777 C325 777 352 751 352 717 L352 706 Z " />
<glyph glyph-name="ae" unicode="&#xe6;" horiz-adv-x="896" d="M326 552 L258 552 C174 552 109 502 109 433 L109 404 L164 404 L164 432 C164 475 208 503 258 503 L324 503 C376 503 420 462 420 408 L420 333 L233 307 C155 296 82 254 82 183 L82 120 C82 54 140 -6 216 -6 L282 -6 C337 -6 395 26 436 79 C461 29 516 -6 583 -6 L651 -6 C744 -6 812 63 812 144 L812 158 L757 158 L757 152 C757 90 707 43 647 43 L585 43 C524 43 475 91 475 154 L475 257 L812 257 L812 400 C812 482 744 552 651 552 L583 552 C526 552 479 523 450 485 C424 522 379 552 326 552 L326 552 Z M284 43 L223 43 C177 43 137 80 137 125 L137 178 C137 219 185 251 238 259 L420 289 L420 146 C420 139 420 132 421 125 C389 75 335 43 284 43 L284 43 Z M585 503 L647 503 C707 503 757 455 757 392 L757 305 L475 305 L475 396 C475 457 525 503 585 503 L585 503 Z " />
<glyph glyph-name="ccedilla" unicode="&#xe7;" horiz-adv-x="554" d="M466 378 L466 395 C466 480 399 552 308 552 L244 552 C151 552 83 480 83 395 L83 149 C83 65 151 -6 244 -6 L257 -6 L227 -80 L260 -80 C295 -80 314 -106 314 -128 C314 -153 294 -171 245 -171 L201 -171 L201 -207 L244 -207 C323 -207 352 -173 352 -128 C352 -90 325 -54 279 -49 L297 -6 L308 -6 C399 -6 466 65 466 149 L466 169 L411 169 L411 154 C411 91 361 43 301 43 L248 43 C188 43 138 91 138 154 L138 392 C138 455 188 503 248 503 L301 503 C361 503 411 455 411 392 L411 378 L466 378 Z " />
<glyph glyph-name="egrave" unicode="&#xe8;" horiz-adv-x="560" d="M476 257 L476 395 C476 480 409 552 318 552 L244 552 C151 552 83 480 83 395 L83 149 C83 65 151 -6 244 -6 L318 -6 C409 -6 476 65 476 149 L476 158 L421 158 L421 154 C421 91 371 43 311 43 L248 43 C188 43 138 91 138 154 L138 257 L476 257 Z M138 392 C138 455 188 503 248 503 L311 503 C371 503 421 455 421 392 L421 302 L138 302 L138 392 Z M154 714 L380 599 L399 640 L175 760 L154 714 Z " />
<glyph glyph-name="eacute" unicode="&#xe9;" horiz-adv-x="560" d="M476 257 L476 395 C476 480 409 552 318 552 L244 552 C151 552 83 480 83 395 L83 149 C83 65 151 -6 244 -6 L318 -6 C409 -6 476 65 476 149 L476 158 L421 158 L421 154 C421 91 371 43 311 43 L248 43 C188 43 138 91 138 154 L138 257 L476 257 Z M138 392 C138 455 188 503 248 503 L311 503 C371 503 421 455 421 392 L421 302 L138 302 L138 392 Z M384 760 L160 640 L179 599 L405 714 L384 760 Z " />
<glyph glyph-name="ecircumflex" unicode="&#xea;" horiz-adv-x="560" d="M476 257 L476 395 C476 480 409 552 318 552 L244 552 C151 552 83 480 83 395 L83 149 C83 65 151 -6 244 -6 L318 -6 C409 -6 476 65 476 149 L476 158 L421 158 L421 154 C421 91 371 43 311 43 L248 43 C188 43 138 91 138 154 L138 257 L476 257 Z M138 392 C138 455 188 503 248 503 L311 503 C371 503 421 455 421 392 L421 302 L138 302 L138 392 Z M273 746 L148 639 L170 600 L280 691 L391 600 L412 641 L287 746 L273 746 Z " />
<glyph glyph-name="edieresis" unicode="&#xeb;" horiz-adv-x="560" d="M476 395 C476 480 409 552 318 552 L244 552 C151 552 83 480 83 395 L83 149 C83 65 151 -6 244 -6 L318 -6 C409 -6 476 65 476 149 L476 158 L421 158 L421 154 C421 91 371 43 311 43 L248 43 C188 43 138 91 138 154 L138 257 L476 257 L476 395 Z M138 392 C138 455 188 503 248 503 L311 503 C371 503 421 455 421 392 L421 302 L138 302 L138 392 Z M357 754 L357 638 L414 638 L414 754 L357 754 Z M145 754 L145 638 L201 638 L201 754 L145 754 Z " />
<glyph glyph-name="igrave" unicode="&#xec;" horiz-adv-x="246" d="M95 546 L95 0 L150 0 L150 546 L95 546 Z M4 714 L230 599 L249 640 L25 760 L4 714 Z " />
<glyph glyph-name="iacute" unicode="&#xed;" horiz-adv-x="246" d="M228 760 L4 640 L23 599 L249 714 L228 760 Z M95 546 L95 0 L150 0 L150 546 L95 546 Z " />
<glyph glyph-name="icircumflex" unicode="&#xee;" horiz-adv-x="246" d="M117 746 L-8 639 L14 600 L124 691 L235 600 L256 641 L131 746 L117 746 Z M95 546 L95 0 L150 0 L150 546 L95 546 Z " />
<glyph glyph-name="idieresis" unicode="&#xef;" horiz-adv-x="246" d="M-11 754 L-11 638 L45 638 L45 754 L-11 754 Z M201 754 L201 638 L258 638 L258 754 L201 754 Z M95 546 L95 0 L150 0 L150 546 L95 546 Z " />
<glyph glyph-name="eth" unicode="&#xf0;" horiz-adv-x="611" d="M463 675 C437 694 404 706 365 706 L155 706 L155 654 L363 654 C386 654 407 647 424 634 L352 557 L371 537 L443 614 C455 598 462 578 462 556 L462 390 C431 417 391 436 354 436 L255 436 C160 436 91 366 91 284 L91 146 C91 64 160 -6 255 -6 L354 -6 C450 -6 520 64 520 146 L520 566 C520 600 507 632 484 657 L551 728 L532 748 L463 675 Z M149 275 C149 337 198 384 260 384 L352 384 C413 384 462 337 462 275 L462 155 C462 93 413 46 352 46 L260 46 C198 46 149 93 149 155 L149 275 Z " />
<glyph glyph-name="ntilde" unicode="&#xf1;" horiz-adv-x="564" d="M472 0 L472 403 C472 491 411 552 321 552 L296 552 C241 552 186 525 145 482 L135 546 L95 546 L95 0 L150 0 L150 429 C182 475 236 503 288 503 L308 503 C368 503 417 466 417 402 L417 0 L472 0 Z M186 634 L186 645 C186 673 191 688 212 688 C252 688 317 630 384 630 C426 630 444 654 444 693 L444 732 L399 732 L399 707 C399 689 390 678 372 678 C314 678 257 737 200 737 C152 737 141 707 141 655 L141 634 L186 634 Z " />
<glyph glyph-name="ograve" unicode="&#xf2;" horiz-adv-x="560" d="M248 43 C188 43 138 91 138 154 L138 392 C138 455 188 503 248 503 L311 503 C371 503 421 455 421 392 L421 154 C421 91 371 43 311 43 L248 43 Z M318 -6 C409 -6 476 65 476 149 L476 395 C476 480 409 552 318 552 L244 552 C151 552 83 480 83 395 L83 149 C83 65 151 -6 244 -6 L318 -6 Z M149 714 L375 599 L394 640 L170 760 L149 714 Z " />
<glyph glyph-name="oacute" unicode="&#xf3;" horiz-adv-x="560" d="M384 760 L160 640 L179 599 L405 714 L384 760 Z M248 43 C188 43 138 91 138 154 L138 392 C138 455 188 503 248 503 L311 503 C371 503 421 455 421 392 L421 154 C421 91 371 43 311 43 L248 43 Z M318 -6 C409 -6 476 65 476 149 L476 395 C476 480 409 552 318 552 L244 552 C151 552 83 480 83 395 L83 149 C83 65 151 -6 244 -6 L318 -6 Z " />
<glyph glyph-name="ocircumflex" unicode="&#xf4;" horiz-adv-x="560" d="M273 746 L148 639 L170 600 L280 691 L391 600 L412 641 L287 746 L273 746 Z M248 43 C188 43 138 91 138 154 L138 392 C138 455 188 503 248 503 L311 503 C371 503 421 455 421 392 L421 154 C421 91 371 43 311 43 L248 43 Z M318 -6 C409 -6 476 65 476 149 L476 395 C476 480 409 552 318 552 L244 552 C151 552 83 480 83 395 L83 149 C83 65 151 -6 244 -6 L318 -6 Z " />
<glyph glyph-name="otilde" unicode="&#xf5;" horiz-adv-x="560" d="M248 43 C188 43 138 91 138 154 L138 392 C138 455 188 503 248 503 L311 503 C371 503 421 455 421 392 L421 154 C421 91 371 43 311 43 L248 43 Z M318 -6 C409 -6 476 65 476 149 L476 395 C476 480 409 552 318 552 L244 552 C151 552 83 480 83 395 L83 149 C83 65 151 -6 244 -6 L318 -6 Z M172 634 L172 645 C172 673 177 688 198 688 C238 688 303 630 370 630 C412 630 430 654 430 693 L430 732 L385 732 L385 707 C385 689 376 678 358 678 C300 678 243 737 186 737 C138 737 127 707 127 655 L127 634 L172 634 Z " />
<glyph glyph-name="odieresis" unicode="&#xf6;" horiz-adv-x="560" d="M145 754 L145 638 L201 638 L201 754 L145 754 Z M357 754 L357 638 L414 638 L414 754 L357 754 Z M248 43 C188 43 138 91 138 154 L138 392 C138 455 188 503 248 503 L311 503 C371 503 421 455 421 392 L421 154 C421 91 371 43 311 43 L248 43 Z M318 -6 C409 -6 476 65 476 149 L476 395 C476 480 409 552 318 552 L244 552 C151 552 83 480 83 395 L83 149 C83 65 151 -6 244 -6 L318 -6 Z " />
<glyph glyph-name="oslash" unicode="&#xf8;" horiz-adv-x="560" d="M82 -100 L152 21 C177 4 209 -6 244 -6 L318 -6 C409 -6 476 65 476 149 L476 395 C476 437 459 476 432 504 L512 643 L478 643 L409 524 C383 541 352 552 318 552 L244 552 C151 552 83 480 83 395 L83 149 C83 107 100 68 129 39 L48 -100 L82 -100 Z M138 154 L138 392 C138 455 188 503 248 503 L311 503 C338 503 362 493 382 477 L158 89 C145 107 138 129 138 154 L138 154 Z M248 43 C222 43 198 52 179 67 L402 454 C414 436 421 415 421 392 L421 154 C421 91 371 43 311 43 L248 43 Z " />
<glyph glyph-name="ugrave" unicode="&#xf9;" horiz-adv-x="556" d="M92 546 L92 143 C92 55 152 -6 243 -6 L267 -6 C320 -6 371 19 411 60 L421 0 L460 0 L460 546 L405 546 L405 112 C373 68 323 43 275 43 L256 43 C196 43 147 80 147 144 L147 546 L92 546 Z M124 714 L350 599 L369 640 L145 760 L124 714 Z " />
<glyph glyph-name="uacute" unicode="&#xfa;" horiz-adv-x="556" d="M92 546 L92 143 C92 55 152 -6 243 -6 L267 -6 C320 -6 371 19 411 60 L421 0 L460 0 L460 546 L405 546 L405 112 C373 68 323 43 275 43 L256 43 C196 43 147 80 147 144 L147 546 L92 546 Z M418 760 L194 640 L213 599 L439 714 L418 760 Z " />
<glyph glyph-name="ucircumflex" unicode="&#xfb;" horiz-adv-x="556" d="M92 546 L92 143 C92 55 152 -6 243 -6 L267 -6 C320 -6 371 19 411 60 L421 0 L460 0 L460 546 L405 546 L405 112 C373 68 323 43 275 43 L256 43 C196 43 147 80 147 144 L147 546 L92 546 Z M262 746 L137 639 L159 600 L269 691 L380 600 L401 641 L276 746 L262 746 Z " />
<glyph glyph-name="udieresis" unicode="&#xfc;" horiz-adv-x="556" d="M92 546 L92 143 C92 55 152 -6 243 -6 L267 -6 C320 -6 371 19 411 60 L421 0 L460 0 L460 546 L405 546 L405 112 C373 68 323 43 275 43 L256 43 C196 43 147 80 147 144 L147 546 L92 546 Z M353 754 L353 638 L410 638 L410 754 L353 754 Z M141 754 L141 638 L197 638 L197 754 L141 754 Z " />
<glyph glyph-name="yacute" unicode="&#xfd;" horiz-adv-x="498" d="M207 -207 L474 546 L417 546 L251 79 L81 546 L24 546 L223 1 L150 -207 L207 -207 Z M353 760 L129 640 L148 599 L374 714 L353 760 Z " />
<glyph glyph-name="thorn" unicode="&#xfe;" horiz-adv-x="572" d="M150 -207 L150 52 C183 16 224 -6 269 -6 L338 -6 C425 -6 488 66 488 150 L488 396 C488 480 425 552 338 552 L272 552 C227 552 184 530 150 493 L150 750 L95 750 L95 -207 L150 -207 Z M260 503 L324 503 C383 503 433 453 433 388 L433 158 C433 93 384 43 324 43 L262 43 C218 43 178 71 150 117 L150 434 C178 475 217 503 260 503 L260 503 Z " />
<glyph glyph-name="ydieresis" unicode="&#xff;" horiz-adv-x="498" d="M207 -207 L474 546 L417 546 L251 79 L81 546 L24 546 L223 1 L150 -207 L207 -207 Z M326 754 L326 638 L383 638 L383 754 L326 754 Z M114 754 L114 638 L170 638 L170 754 L114 754 Z " />
<glyph glyph-name="Amacron" unicode="&#x100;" horiz-adv-x="653" d="M298 705 L50 0 L109 0 L186 225 L466 225 L544 0 L603 0 L356 705 L298 705 Z M326 630 L448 277 L204 277 L326 630 Z M466 877 L180 877 L180 823 L466 823 L466 877 Z " />
<glyph glyph-name="amacron" unicode="&#x101;" horiz-adv-x="567" d="M325 552 L257 552 C173 552 109 498 109 427 L109 399 L164 399 L164 424 C164 471 210 503 263 503 L320 503 C374 503 420 461 420 406 L420 333 L233 307 C155 296 82 254 82 183 L82 120 C82 54 140 -6 216 -6 L282 -6 C333 -6 385 21 425 66 L436 0 L475 0 L475 410 C475 487 411 552 325 552 L325 552 Z M284 43 L223 43 C177 43 137 80 137 125 L137 178 C137 219 185 251 238 259 L420 289 L420 122 C387 74 335 43 284 43 L284 43 Z M431 720 L145 720 L145 670 L431 670 L431 720 Z " />
<glyph glyph-name="Abreve" unicode="&#x102;" horiz-adv-x="653" d="M298 705 L50 0 L109 0 L186 225 L466 225 L544 0 L603 0 L356 705 L298 705 Z M326 630 L448 277 L204 277 L326 630 Z M422 896 L422 875 C422 852 403 833 381 833 L264 833 C241 833 223 852 223 875 L223 896 L177 896 L177 868 C177 822 214 784 261 784 L384 784 C430 784 469 822 469 868 L469 896 L422 896 Z " />
<glyph glyph-name="abreve" unicode="&#x103;" horiz-adv-x="567" d="M325 552 L257 552 C173 552 109 498 109 427 L109 399 L164 399 L164 424 C164 471 210 503 263 503 L320 503 C374 503 420 461 420 406 L420 333 L233 307 C155 296 82 254 82 183 L82 120 C82 54 140 -6 216 -6 L282 -6 C333 -6 385 21 425 66 L436 0 L475 0 L475 410 C475 487 411 552 325 552 L325 552 Z M284 43 L223 43 C177 43 137 80 137 125 L137 178 C137 219 185 251 238 259 L420 289 L420 122 C387 74 335 43 284 43 L284 43 Z M393 742 L393 717 C393 685 367 659 337 659 L250 659 C219 659 194 685 194 717 L194 742 L148 742 L148 713 C148 659 192 615 247 615 L340 615 C394 615 440 659 440 713 L440 742 L393 742 Z " />
<glyph glyph-name="Aogonek" unicode="&#x104;" horiz-adv-x="653" d="M298 705 L50 0 L109 0 L186 225 L466 225 L542 4 C497 -33 478 -74 478 -108 C478 -164 519 -185 584 -185 L619 -185 L619 -148 L590 -148 C548 -148 522 -136 522 -106 C522 -80 539 -42 597 0 L603 0 L602 3 L356 705 L298 705 Z M326 630 L448 277 L204 277 L326 630 Z " />
<glyph glyph-name="aogonek" unicode="&#x105;" horiz-adv-x="567" d="M497 -148 L468 -148 C426 -148 400 -136 400 -106 C400 -80 418 -40 475 4 L475 410 C475 487 411 552 325 552 L257 552 C173 552 109 498 109 427 L109 399 L164 399 L164 424 C164 471 210 503 263 503 L320 503 C374 503 420 461 420 406 L420 333 L233 307 C155 296 82 254 82 183 L82 120 C82 54 140 -6 216 -6 L282 -6 C333 -6 385 21 425 66 L432 13 C379 -27 356 -72 356 -108 C356 -164 397 -185 462 -185 L497 -185 L497 -148 Z M284 43 L223 43 C177 43 137 80 137 125 L137 178 C137 219 185 251 238 259 L420 289 L420 122 C387 74 335 43 284 43 L284 43 Z " />
<glyph glyph-name="Cacute" unicode="&#x106;" horiz-adv-x="635" d="M486 221 L486 155 C486 93 437 46 375 46 L260 46 C198 46 149 93 149 155 L149 545 C149 607 198 654 260 654 L375 654 C437 654 486 607 486 545 L486 484 L544 484 L544 554 C544 636 474 706 380 706 L257 706 C161 706 91 636 91 554 L91 146 C91 64 161 -6 257 -6 L380 -6 C474 -6 544 64 544 146 L544 221 L486 221 Z M427 902 L211 812 L231 765 L449 850 L427 902 Z " />
<glyph glyph-name="cacute" unicode="&#x107;" horiz-adv-x="550" d="M380 760 L156 640 L175 599 L401 714 L380 760 Z M466 378 L466 395 C466 480 399 552 308 552 L244 552 C151 552 83 480 83 395 L83 149 C83 65 151 -6 244 -6 L308 -6 C399 -6 466 65 466 149 L466 169 L411 169 L411 154 C411 91 361 43 301 43 L248 43 C188 43 138 91 138 154 L138 392 C138 455 188 503 248 503 L301 503 C361 503 411 455 411 392 L411 378 L466 378 Z " />
<glyph glyph-name="Ccaron" unicode="&#x10c;" horiz-adv-x="635" d="M486 221 L486 155 C486 93 437 46 375 46 L260 46 C198 46 149 93 149 155 L149 545 C149 607 198 654 260 654 L375 654 C437 654 486 607 486 545 L486 484 L544 484 L544 554 C544 636 474 706 380 706 L257 706 C161 706 91 636 91 554 L91 146 C91 64 161 -6 257 -6 L380 -6 C474 -6 544 64 544 146 L544 221 L486 221 Z M333 764 L474 850 L452 898 L325 820 L200 898 L178 853 L319 764 L333 764 Z " />
<glyph glyph-name="ccaron" unicode="&#x10d;" horiz-adv-x="550" d="M281 600 L406 703 L385 746 L274 654 L164 746 L142 706 L267 600 L281 600 Z M466 378 L466 395 C466 480 399 552 308 552 L244 552 C151 552 83 480 83 395 L83 149 C83 65 151 -6 244 -6 L308 -6 C399 -6 466 65 466 149 L466 169 L411 169 L411 154 C411 91 361 43 301 43 L248 43 C188 43 138 91 138 154 L138 392 C138 455 188 503 248 503 L301 503 C361 503 411 455 411 392 L411 378 L466 378 Z " />
<glyph glyph-name="Dcaron" unicode="&#x10e;" horiz-adv-x="663" d="M103 0 L408 0 C503 0 572 70 572 152 L572 548 C572 630 503 700 408 700 L103 700 L103 0 Z M403 648 C465 648 514 601 514 539 L514 161 C514 99 465 52 403 52 L161 52 L161 648 L403 648 Z M324 764 L465 850 L443 898 L316 820 L191 898 L169 853 L310 764 L324 764 Z " />
<glyph glyph-name="dcaron" unicode="&#x10f;" horiz-adv-x="804" d="M476 0 L476 750 L421 750 L421 494 C386 530 344 552 300 552 L233 552 C147 552 83 477 83 389 L83 158 C83 69 147 -6 233 -6 L302 -6 C349 -6 393 18 427 58 L437 0 L476 0 Z M305 43 L247 43 C188 43 138 93 138 158 L138 388 C138 453 188 503 248 503 L306 503 C350 503 393 475 421 434 L421 116 C391 70 349 43 305 43 L305 43 Z M618 564 C651 577 669 608 669 635 L669 750 L724 750 L724 635 C724 566 676 524 618 511 L618 564 Z " />
<glyph glyph-name="Dcroat" unicode="&#x110;" horiz-adv-x="663" d="M103 0 L408 0 C503 0 572 70 572 152 L572 548 C572 630 503 700 408 700 L103 700 L103 393 L19 393 L19 342 L103 342 L103 0 Z M341 393 L161 393 L161 648 L403 648 C465 648 514 601 514 539 L514 161 C514 99 465 52 403 52 L161 52 L161 342 L341 342 L341 393 Z " />
<glyph glyph-name="dcroat" unicode="&#x111;" horiz-adv-x="572" d="M476 0 L476 616 L543 616 L543 663 L476 663 L476 750 L421 750 L421 663 L228 663 L228 616 L421 616 L421 494 C386 530 344 552 300 552 L233 552 C147 552 83 477 83 389 L83 158 C83 69 147 -6 233 -6 L302 -6 C349 -6 393 18 427 58 L437 0 L476 0 Z M305 43 L247 43 C188 43 138 93 138 158 L138 388 C138 453 188 503 248 503 L306 503 C350 503 393 475 421 434 L421 116 C391 70 349 43 305 43 L305 43 Z " />
<glyph glyph-name="Emacron" unicode="&#x112;" horiz-adv-x="593" d="M503 52 L161 52 L161 340 L470 340 L470 391 L161 391 L161 649 L493 649 L493 700 L103 700 L103 0 L503 0 L503 52 Z M443 877 L157 877 L157 823 L443 823 L443 877 Z " />
<glyph glyph-name="emacron" unicode="&#x113;" horiz-adv-x="560" d="M476 395 C476 480 409 552 318 552 L244 552 C151 552 83 480 83 395 L83 149 C83 65 151 -6 244 -6 L318 -6 C409 -6 476 65 476 149 L476 158 L421 158 L421 154 C421 91 371 43 311 43 L248 43 C188 43 138 91 138 154 L138 257 L476 257 L476 395 Z M138 392 C138 455 188 503 248 503 L311 503 C371 503 421 455 421 392 L421 302 L138 302 L138 392 Z M421 720 L135 720 L135 670 L421 670 L421 720 Z " />
<glyph glyph-name="Edotaccent" unicode="&#x116;" horiz-adv-x="593" d="M503 52 L161 52 L161 340 L470 340 L470 391 L161 391 L161 649 L493 649 L493 700 L103 700 L103 0 L503 0 L503 52 Z M272 902 L272 794 L327 794 L327 902 L272 902 Z " />
<glyph glyph-name="edotaccent" unicode="&#x117;" horiz-adv-x="560" d="M476 257 L476 395 C476 480 409 552 318 552 L244 552 C151 552 83 480 83 395 L83 149 C83 65 151 -6 244 -6 L318 -6 C409 -6 476 65 476 149 L476 158 L421 158 L421 154 C421 91 371 43 311 43 L248 43 C188 43 138 91 138 154 L138 257 L476 257 Z M138 392 C138 455 188 503 248 503 L311 503 C371 503 421 455 421 392 L421 302 L138 302 L138 392 Z M246 754 L246 638 L301 638 L301 754 L246 754 Z " />
<glyph glyph-name="Eogonek" unicode="&#x118;" horiz-adv-x="593" d="M503 52 L161 52 L161 340 L470 340 L470 391 L161 391 L161 649 L493 649 L493 700 L103 700 L103 0 L438 0 C396 -36 378 -76 378 -108 C378 -164 419 -185 484 -185 L519 -185 L519 -148 L490 -148 C448 -148 422 -136 422 -106 C422 -80 439 -42 497 0 L503 0 L503 52 Z " />
<glyph glyph-name="eogonek" unicode="&#x119;" horiz-adv-x="560" d="M476 257 L476 395 C476 480 409 552 318 552 L244 552 C151 552 83 480 83 395 L83 149 C83 65 151 -6 244 -6 L292 -6 C255 -41 239 -77 239 -108 C239 -164 280 -185 345 -185 L380 -185 L380 -148 L351 -148 C309 -148 283 -136 283 -106 C283 -81 299 -42 356 -1 C427 15 476 77 476 149 L476 158 L421 158 L421 154 C421 91 371 43 311 43 L248 43 C188 43 138 91 138 154 L138 257 L476 257 Z M138 392 C138 455 188 503 248 503 L311 503 C371 503 421 455 421 392 L421 302 L138 302 L138 392 Z " />
<glyph glyph-name="Ecaron" unicode="&#x11a;" horiz-adv-x="593" d="M503 52 L161 52 L161 340 L470 340 L470 391 L161 391 L161 649 L493 649 L493 700 L103 700 L103 0 L503 0 L503 52 Z M305 764 L446 850 L424 898 L297 820 L172 898 L150 853 L291 764 L305 764 Z " />
<glyph glyph-name="ecaron" unicode="&#x11b;" horiz-adv-x="560" d="M476 395 C476 480 409 552 318 552 L244 552 C151 552 83 480 83 395 L83 149 C83 65 151 -6 244 -6 L318 -6 C409 -6 476 65 476 149 L476 158 L421 158 L421 154 C421 91 371 43 311 43 L248 43 C188 43 138 91 138 154 L138 257 L476 257 L476 395 Z M138 392 C138 455 188 503 248 503 L311 503 C371 503 421 455 421 392 L421 302 L138 302 L138 392 Z M287 600 L412 703 L391 746 L280 654 L170 746 L148 706 L273 600 L287 600 Z " />
<glyph glyph-name="Gbreve" unicode="&#x11e;" horiz-adv-x="651" d="M560 484 L560 554 C560 636 491 706 396 706 L257 706 C161 706 91 636 91 554 L91 146 C91 64 161 -6 257 -6 L396 -6 C491 -6 560 64 560 146 L560 347 L320 347 L320 296 L502 296 L502 155 C502 93 453 46 391 46 L260 46 C198 46 149 93 149 155 L149 545 C149 607 198 654 260 654 L391 654 C453 654 502 607 502 545 L502 484 L560 484 Z M431 896 L431 875 C431 852 412 833 390 833 L273 833 C250 833 232 852 232 875 L232 896 L186 896 L186 868 C186 822 223 784 270 784 L393 784 C439 784 478 822 478 868 L478 896 L431 896 Z " />
<glyph glyph-name="gbreve" unicode="&#x11f;" horiz-adv-x="572" d="M476 546 L437 546 L427 487 C392 527 348 552 300 552 L233 552 C147 552 83 477 83 389 L83 158 C83 69 147 -6 233 -6 L302 -6 C345 -6 387 15 421 51 L421 -50 C421 -113 370 -160 309 -160 L251 -160 C191 -160 143 -116 139 -60 L138 -52 L84 -57 L84 -65 C88 -143 158 -207 250 -207 L312 -207 C407 -207 476 -137 476 -55 L476 546 Z M305 43 L247 43 C187 43 138 93 138 158 L138 388 C138 453 188 503 248 503 L306 503 C351 503 393 476 421 432 L421 113 C392 70 349 43 305 43 L305 43 Z M391 742 L391 717 C391 685 365 659 335 659 L248 659 C217 659 192 685 192 717 L192 742 L146 742 L146 713 C146 659 190 615 245 615 L338 615 C392 615 438 659 438 713 L438 742 L391 742 Z " />
<glyph glyph-name="uni0122" unicode="&#x122;" horiz-adv-x="651" d="M560 484 L560 554 C560 636 491 706 396 706 L257 706 C161 706 91 636 91 554 L91 146 C91 64 161 -6 257 -6 L396 -6 C491 -6 560 64 560 146 L560 347 L320 347 L320 296 L502 296 L502 155 C502 93 453 46 391 46 L260 46 C198 46 149 93 149 155 L149 545 C149 607 198 654 260 654 L391 654 C453 654 502 607 502 545 L502 484 L560 484 Z M268 -241 C301 -228 319 -197 319 -170 L319 -55 L374 -55 L374 -170 C374 -239 327 -281 268 -295 L268 -241 Z " />
<glyph glyph-name="uni0123" unicode="&#x123;" horiz-adv-x="572" d="M476 546 L437 546 L427 487 C392 527 348 552 300 552 L233 552 C147 552 83 477 83 389 L83 158 C83 69 147 -6 233 -6 L302 -6 C345 -6 387 15 421 51 L421 -50 C421 -113 370 -160 309 -160 L251 -160 C191 -160 143 -116 139 -60 L138 -52 L84 -57 L84 -65 C88 -143 158 -207 250 -207 L312 -207 C407 -207 476 -137 476 -55 L476 546 Z M305 43 L247 43 C187 43 138 93 138 158 L138 388 C138 453 188 503 248 503 L306 503 C351 503 393 476 421 432 L421 113 C392 70 349 43 305 43 L305 43 Z M360 861 C301 847 254 805 254 736 L254 621 L309 621 L309 736 C309 763 327 794 360 808 L360 861 Z " />
<glyph glyph-name="Imacron" unicode="&#x12a;" horiz-adv-x="264" d="M161 0 L161 700 L103 700 L103 0 L161 0 Z M273 868 L-13 868 L-13 814 L273 814 L273 868 Z " />
<glyph glyph-name="imacron" unicode="&#x12b;" horiz-adv-x="246" d="M95 546 L95 0 L150 0 L150 546 L95 546 Z M264 720 L-22 720 L-22 670 L264 670 L264 720 Z " />
<glyph glyph-name="Iogonek" unicode="&#x12e;" horiz-adv-x="264" d="M182 -148 L153 -148 C111 -148 85 -136 85 -106 C85 -80 103 -42 161 0 L161 700 L103 700 L103 2 C60 -35 41 -75 41 -108 C41 -164 82 -185 147 -185 L182 -185 L182 -148 Z " />
<glyph glyph-name="iogonek" unicode="&#x12f;" horiz-adv-x="246" d="M173 -148 L144 -148 C102 -148 76 -136 76 -106 C76 -80 94 -40 156 3 L150 4 L150 546 L95 546 L95 2 C51 -34 32 -75 32 -108 C32 -164 73 -185 138 -185 L173 -185 L173 -148 Z M95 750 L95 635 L150 635 L150 750 L95 750 Z " />
<glyph glyph-name="Idotaccent" unicode="&#x130;" horiz-adv-x="264" d="M161 0 L161 700 L103 700 L103 0 L161 0 Z M104 902 L104 794 L159 794 L159 902 L104 902 Z " />
<glyph glyph-name="dotlessi" unicode="&#x131;" horiz-adv-x="246" d="M95 546 L95 0 L150 0 L150 546 L95 546 Z " />
<glyph glyph-name="uni0136" unicode="&#x136;" horiz-adv-x="622" d="M161 0 L161 331 L281 331 L517 0 L584 0 L325 360 L537 700 L472 700 L275 383 L161 383 L161 700 L103 700 L103 0 L161 0 Z M234 -241 C267 -228 285 -197 285 -170 L285 -55 L340 -55 L340 -170 C340 -239 293 -281 234 -295 L234 -241 Z " />
<glyph glyph-name="uni0137" unicode="&#x137;" horiz-adv-x="519" d="M502 0 L264 314 L469 546 L402 546 L223 336 L150 336 L150 750 L95 750 L95 0 L150 0 L150 287 L223 287 L439 0 L502 0 Z M198 -241 C231 -228 249 -197 249 -170 L249 -55 L304 -55 L304 -170 C304 -239 257 -281 198 -295 L198 -241 Z " />
<glyph glyph-name="Lacute" unicode="&#x139;" horiz-adv-x="496" d="M466 52 L161 52 L161 700 L103 700 L103 0 L466 0 L466 52 Z M234 902 L18 812 L38 765 L256 850 L234 902 Z " />
<glyph glyph-name="lacute" unicode="&#x13a;" horiz-adv-x="246" d="M225 912 L9 822 L29 775 L247 860 L225 912 Z M95 750 L95 0 L150 0 L150 750 L95 750 Z " />
<glyph glyph-name="uni013B" unicode="&#x13b;" horiz-adv-x="496" d="M466 52 L161 52 L161 700 L103 700 L103 0 L466 0 L466 52 Z M209 -241 C242 -228 260 -197 260 -170 L260 -55 L315 -55 L315 -170 C315 -239 268 -281 209 -295 L209 -241 Z " />
<glyph glyph-name="uni013C" unicode="&#x13c;" horiz-adv-x="246" d="M46 -241 C79 -228 97 -197 97 -170 L97 -55 L152 -55 L152 -170 C152 -239 105 -281 46 -295 L46 -241 Z M95 750 L95 0 L150 0 L150 750 L95 750 Z " />
<glyph glyph-name="Lcaron" unicode="&#x13d;" horiz-adv-x="496" d="M466 52 L161 52 L161 700 L103 700 L103 0 L466 0 L466 52 Z M140 764 L281 850 L259 898 L132 820 L7 898 L-15 853 L126 764 L140 764 Z " />
<glyph glyph-name="lcaron" unicode="&#x13e;" horiz-adv-x="478" d="M293 511 C351 524 399 566 399 635 L399 750 L344 750 L344 635 C344 608 326 577 293 564 L293 511 Z M95 750 L95 0 L150 0 L150 750 L95 750 Z " />
<glyph glyph-name="Lslash" unicode="&#x141;" horiz-adv-x="496" d="M466 52 L161 52 L161 334 L298 433 L298 496 L161 397 L161 700 L103 700 L103 363 L8 294 L8 232 L103 301 L103 0 L466 0 L466 52 Z " />
<glyph glyph-name="lslash" unicode="&#x142;" horiz-adv-x="246" d="M95 750 L95 382 L-14 303 L-14 241 L95 320 L95 0 L150 0 L150 352 L259 431 L259 493 L150 415 L150 750 L95 750 Z " />
<glyph glyph-name="Nacute" unicode="&#x143;" horiz-adv-x="675" d="M161 0 L161 599 L512 0 L572 0 L572 701 L514 701 L514 102 L163 700 L103 700 L103 0 L161 0 Z M471 902 L255 812 L275 765 L493 850 L471 902 Z " />
<glyph glyph-name="nacute" unicode="&#x144;" horiz-adv-x="564" d="M472 0 L472 403 C472 491 411 552 321 552 L296 552 C241 552 186 525 145 482 L135 546 L95 546 L95 0 L150 0 L150 429 C182 475 236 503 288 503 L308 503 C368 503 417 466 417 402 L417 0 L472 0 Z M399 760 L175 640 L194 599 L420 714 L399 760 Z " />
<glyph glyph-name="uni0145" unicode="&#x145;" horiz-adv-x="675" d="M161 0 L161 599 L512 0 L572 0 L572 701 L514 701 L514 102 L163 700 L103 700 L103 0 L161 0 Z M266 -241 C299 -228 317 -197 317 -170 L317 -55 L372 -55 L372 -170 C372 -239 325 -281 266 -295 L266 -241 Z " />
<glyph glyph-name="uni0146" unicode="&#x146;" horiz-adv-x="564" d="M472 0 L472 403 C472 491 411 552 321 552 L296 552 C241 552 186 525 145 482 L135 546 L95 546 L95 0 L150 0 L150 429 C182 475 236 503 288 503 L308 503 C368 503 417 466 417 402 L417 0 L472 0 Z M211 -241 C244 -228 262 -197 262 -170 L262 -55 L317 -55 L317 -170 C317 -239 270 -281 211 -295 L211 -241 Z " />
<glyph glyph-name="Ncaron" unicode="&#x147;" horiz-adv-x="675" d="M161 0 L161 599 L512 0 L572 0 L572 701 L514 701 L514 102 L163 700 L103 700 L103 0 L161 0 Z M346 764 L487 850 L465 898 L338 820 L213 898 L191 853 L332 764 L346 764 Z " />
<glyph glyph-name="ncaron" unicode="&#x148;" horiz-adv-x="564" d="M472 0 L472 403 C472 491 411 552 321 552 L296 552 C241 552 186 525 145 482 L135 546 L95 546 L95 0 L150 0 L150 429 C182 475 236 503 288 503 L308 503 C368 503 417 466 417 402 L417 0 L472 0 Z M300 600 L425 703 L404 746 L293 654 L183 746 L161 706 L286 600 L300 600 Z " />
<glyph glyph-name="Omacron" unicode="&#x14c;" horiz-adv-x="651" d="M260 46 C198 46 149 93 149 155 L149 545 C149 607 198 654 260 654 L391 654 C453 654 502 607 502 545 L502 155 C502 93 453 46 391 46 L260 46 Z M396 -6 C491 -6 560 64 560 146 L560 554 C560 636 491 706 396 706 L257 706 C161 706 91 636 91 554 L91 146 C91 64 161 -6 257 -6 L396 -6 Z M466 880 L180 880 L180 826 L466 826 L466 880 Z " />
<glyph glyph-name="omacron" unicode="&#x14d;" horiz-adv-x="560" d="M418 720 L132 720 L132 670 L418 670 L418 720 Z M248 43 C188 43 138 91 138 154 L138 392 C138 455 188 503 248 503 L311 503 C371 503 421 455 421 392 L421 154 C421 91 371 43 311 43 L248 43 Z M318 -6 C409 -6 476 65 476 149 L476 395 C476 480 409 552 318 552 L244 552 C151 552 83 480 83 395 L83 149 C83 65 151 -6 244 -6 L318 -6 Z " />
<glyph glyph-name="Ohungarumlaut" unicode="&#x150;" horiz-adv-x="651" d="M293 896 L210 780 L247 754 L336 867 L293 896 Z M448 896 L365 780 L402 754 L491 867 L448 896 Z M260 46 C198 46 149 93 149 155 L149 545 C149 607 198 654 260 654 L391 654 C453 654 502 607 502 545 L502 155 C502 93 453 46 391 46 L260 46 Z M396 -6 C491 -6 560 64 560 146 L560 554 C560 636 491 706 396 706 L257 706 C161 706 91 636 91 554 L91 146 C91 64 161 -6 257 -6 L396 -6 Z " />
<glyph glyph-name="ohungarumlaut" unicode="&#x151;" horiz-adv-x="560" d="M293 774 L159 612 L196 585 L336 744 L293 774 Z M448 774 L314 612 L351 585 L491 744 L448 774 Z M248 43 C188 43 138 91 138 154 L138 392 C138 455 188 503 248 503 L311 503 C371 503 421 455 421 392 L421 154 C421 91 371 43 311 43 L248 43 Z M318 -6 C409 -6 476 65 476 149 L476 395 C476 480 409 552 318 552 L244 552 C151 552 83 480 83 395 L83 149 C83 65 151 -6 244 -6 L318 -6 Z " />
<glyph glyph-name="OE" unicode="&#x152;" horiz-adv-x="992" d="M902 52 L560 52 L560 340 L869 340 L869 391 L560 391 L560 649 L892 649 L892 700 L257 700 C161 700 91 631 91 549 L91 152 C91 70 161 0 257 0 L902 0 L902 52 Z M149 161 L149 539 C149 602 198 649 260 649 L502 649 L502 52 L260 52 C198 52 149 99 149 161 L149 161 Z " />
<glyph glyph-name="oe" unicode="&#x153;" horiz-adv-x="898" d="M318 -6 C373 -6 420 20 448 60 C476 20 524 -6 581 -6 L655 -6 C746 -6 813 65 813 149 L813 158 L758 158 L758 154 C758 91 708 43 648 43 L585 43 C529 43 476 87 476 141 L476 257 L813 257 L813 395 C813 480 746 552 655 552 L581 552 C524 552 476 525 448 484 C420 525 373 552 318 552 L244 552 C151 552 83 480 83 395 L83 149 C83 65 151 -6 244 -6 L318 -6 Z M248 43 C188 43 138 91 138 154 L138 392 C138 455 188 503 248 503 L311 503 C367 503 420 458 420 404 L420 141 C420 88 367 43 311 43 L248 43 Z M585 503 L648 503 C708 503 758 455 758 392 L758 302 L476 302 L476 404 C476 457 529 503 585 503 L585 503 Z " />
<glyph glyph-name="Racute" unicode="&#x154;" horiz-adv-x="641" d="M161 0 L161 277 L350 277 L488 0 L550 0 L412 279 C492 291 548 354 548 415 L548 559 C548 638 475 700 373 700 L103 700 L103 0 L161 0 Z M368 648 C437 648 491 609 491 550 L491 424 C491 374 441 328 380 328 L161 328 L161 648 L368 648 Z M421 902 L205 812 L225 765 L443 850 L421 902 Z " />
<glyph glyph-name="racute" unicode="&#x155;" horiz-adv-x="369" d="M347 548 L305 548 C248 548 188 513 145 455 L135 546 L95 546 L95 0 L150 0 L150 390 C184 458 247 499 300 499 L347 499 L347 548 Z M299 760 L75 640 L94 599 L320 714 L299 760 Z " />
<glyph glyph-name="uni0156" unicode="&#x156;" horiz-adv-x="641" d="M161 0 L161 277 L350 277 L488 0 L550 0 L412 279 C492 291 548 354 548 415 L548 559 C548 638 475 700 373 700 L103 700 L103 0 L161 0 Z M368 648 C437 648 491 609 491 550 L491 424 C491 374 441 328 380 328 L161 328 L161 648 L368 648 Z M250 -241 C283 -228 301 -197 301 -170 L301 -55 L356 -55 L356 -170 C356 -239 309 -281 250 -295 L250 -241 Z " />
<glyph glyph-name="uni0157" unicode="&#x157;" horiz-adv-x="369" d="M347 548 L305 548 C248 548 188 513 145 455 L135 546 L95 546 L95 0 L150 0 L150 390 C184 458 247 499 300 499 L347 499 L347 548 Z M48 -241 C81 -228 99 -197 99 -170 L99 -55 L154 -55 L154 -170 C154 -239 107 -281 48 -295 L48 -241 Z " />
<glyph glyph-name="Rcaron" unicode="&#x158;" horiz-adv-x="641" d="M161 0 L161 277 L350 277 L488 0 L550 0 L412 279 C492 291 548 354 548 415 L548 559 C548 638 475 700 373 700 L103 700 L103 0 L161 0 Z M368 648 C437 648 491 609 491 550 L491 424 C491 374 441 328 380 328 L161 328 L161 648 L368 648 Z M309 764 L450 850 L428 898 L301 820 L176 898 L154 853 L295 764 L309 764 Z " />
<glyph glyph-name="rcaron" unicode="&#x159;" horiz-adv-x="369" d="M347 548 L305 548 C248 548 188 513 145 455 L135 546 L95 546 L95 0 L150 0 L150 390 C184 458 247 499 300 499 L347 499 L347 548 Z M220 600 L345 703 L324 746 L213 654 L103 746 L81 706 L206 600 L220 600 Z " />
<glyph glyph-name="Sacute" unicode="&#x15a;" horiz-adv-x="609" d="M70 200 L70 146 C70 64 150 -6 259 -6 L349 -6 C458 -6 539 50 539 138 L539 205 C539 357 152 375 152 513 L152 564 C152 615 200 654 259 654 L339 654 C407 654 461 610 461 552 L461 499 L519 499 L519 562 C519 639 445 706 344 706 L251 706 C161 706 94 644 94 573 L94 510 C94 325 481 305 481 197 L481 148 C481 83 421 46 344 46 L261 46 C186 46 128 93 128 155 L128 200 L70 200 Z M418 902 L202 812 L222 765 L440 850 L418 902 Z " />
<glyph glyph-name="sacute" unicode="&#x15b;" horiz-adv-x="551" d="M376 763 L152 643 L171 602 L397 717 L376 763 Z M416 116 C416 78 375 43 326 43 L234 43 C178 43 136 76 136 114 L136 143 L81 143 L81 112 C81 51 142 -6 229 -6 L328 -6 C409 -6 470 49 470 113 L470 165 C470 308 152 271 152 386 L152 433 C152 470 193 503 242 503 L301 503 C353 503 399 475 399 432 L399 404 L451 404 L451 433 C451 502 387 552 304 552 L237 552 C153 552 96 496 96 435 L96 380 C96 223 416 259 416 162 L416 116 Z " />
<glyph glyph-name="Scedilla" unicode="&#x15e;" horiz-adv-x="609" d="M70 200 L70 146 C70 64 150 -6 259 -6 L285 -6 L255 -80 L288 -80 C323 -80 342 -106 342 -128 C342 -153 322 -171 273 -171 L229 -171 L229 -207 L272 -207 C351 -207 380 -173 380 -128 C380 -90 353 -54 307 -49 L325 -6 L349 -6 C458 -6 539 50 539 138 L539 205 C539 357 152 375 152 513 L152 564 C152 615 200 654 259 654 L339 654 C407 654 461 610 461 552 L461 499 L519 499 L519 562 C519 639 445 706 344 706 L251 706 C161 706 94 644 94 573 L94 510 C94 325 481 305 481 197 L481 148 C481 83 421 46 344 46 L261 46 C186 46 128 93 128 155 L128 200 L70 200 Z " />
<glyph glyph-name="scedilla" unicode="&#x15f;" horiz-adv-x="551" d="M416 116 C416 78 375 43 326 43 L234 43 C178 43 136 76 136 114 L136 143 L81 143 L81 112 C81 51 142 -6 229 -6 L261 -6 L231 -80 L264 -80 C299 -80 318 -106 318 -128 C318 -153 298 -171 249 -171 L205 -171 L205 -207 L248 -207 C327 -207 356 -173 356 -128 C356 -90 329 -54 283 -49 L301 -6 L328 -6 C409 -6 470 49 470 113 L470 165 C470 308 152 271 152 386 L152 433 C152 470 193 503 242 503 L301 503 C353 503 399 475 399 432 L399 404 L451 404 L451 433 C451 502 387 552 304 552 L237 552 C153 552 96 496 96 435 L96 380 C96 223 416 259 416 162 L416 116 Z " />
<glyph glyph-name="Scaron" unicode="&#x160;" horiz-adv-x="609" d="M70 200 L70 146 C70 64 150 -6 259 -6 L349 -6 C458 -6 539 50 539 138 L539 205 C539 357 152 375 152 513 L152 564 C152 615 200 654 259 654 L339 654 C407 654 461 610 461 552 L461 499 L519 499 L519 562 C519 639 445 706 344 706 L251 706 C161 706 94 644 94 573 L94 510 C94 325 481 305 481 197 L481 148 C481 83 421 46 344 46 L261 46 C186 46 128 93 128 155 L128 200 L70 200 Z M308 764 L449 850 L427 898 L300 820 L175 898 L153 853 L294 764 L308 764 Z " />
<glyph glyph-name="scaron" unicode="&#x161;" horiz-adv-x="565" d="M286 603 L411 706 L390 749 L279 657 L169 749 L147 709 L272 603 L286 603 Z M417 116 C417 78 376 43 327 43 L235 43 C179 43 137 76 137 114 L137 143 L82 143 L82 112 C82 51 143 -6 230 -6 L329 -6 C410 -6 471 49 471 113 L471 165 C471 308 153 271 153 386 L153 433 C153 470 194 503 243 503 L302 503 C354 503 400 475 400 432 L400 404 L452 404 L452 433 C452 502 388 552 305 552 L238 552 C154 552 97 496 97 435 L97 380 C97 223 417 259 417 162 L417 116 Z " />
<glyph glyph-name="uni0162" unicode="&#x162;" horiz-adv-x="494" d="M280 0 L280 649 L467 649 L467 700 L26 700 L26 649 L222 649 L222 0 L280 0 Z M171 -241 C204 -228 222 -197 222 -170 L222 -55 L277 -55 L277 -170 C277 -239 230 -281 171 -295 L171 -241 Z " />
<glyph glyph-name="uni0163" unicode="&#x163;" horiz-adv-x="309" d="M269 546 L155 546 L155 700 L116 700 L100 546 L25 546 L25 497 L100 497 L100 142 C100 52 162 -6 267 -6 L267 42 C202 42 155 88 155 142 L155 497 L269 497 L269 546 Z M106 -241 C139 -228 157 -197 157 -170 L157 -55 L212 -55 L212 -170 C212 -239 165 -281 106 -295 L106 -241 Z " />
<glyph glyph-name="Tcaron" unicode="&#x164;" horiz-adv-x="494" d="M280 0 L280 649 L467 649 L467 700 L26 700 L26 649 L222 649 L222 0 L280 0 Z M257 764 L398 850 L376 898 L249 820 L124 898 L102 853 L243 764 L257 764 Z " />
<glyph glyph-name="tcaron" unicode="&#x165;" horiz-adv-x="541" d="M269 546 L155 546 L155 700 L116 700 L100 546 L25 546 L25 497 L100 497 L100 142 C100 52 162 -6 267 -6 L267 42 C202 42 155 88 155 142 L155 497 L269 497 L269 546 Z M356 511 C414 524 462 566 462 635 L462 750 L407 750 L407 635 C407 608 389 577 356 564 L356 511 Z " />
<glyph glyph-name="Umacron" unicode="&#x16a;" horiz-adv-x="655" d="M559 146 L559 700 L501 700 L501 155 C501 93 452 46 391 46 L264 46 C203 46 153 93 153 155 L153 700 L95 700 L95 146 C95 64 166 -6 262 -6 L396 -6 C490 -6 559 64 559 146 L559 146 Z M468 877 L182 877 L182 823 L468 823 L468 877 Z " />
<glyph glyph-name="umacron" unicode="&#x16b;" horiz-adv-x="556" d="M92 546 L92 143 C92 55 152 -6 243 -6 L267 -6 C320 -6 371 19 411 60 L421 0 L460 0 L460 546 L405 546 L405 112 C373 68 323 43 275 43 L256 43 C196 43 147 80 147 144 L147 546 L92 546 Z M409 720 L123 720 L123 670 L409 670 L409 720 Z " />
<glyph glyph-name="Uring" unicode="&#x16e;" horiz-adv-x="655" d="M229 870 L229 854 C229 802 272 757 331 757 L341 757 C399 757 442 802 442 854 L442 870 C442 922 399 967 341 967 L331 967 C272 967 229 922 229 870 L229 870 Z M397 856 C397 823 370 796 338 796 L332 796 C301 796 273 823 273 856 L273 867 C273 901 301 928 332 928 L338 928 C370 928 397 901 397 867 L397 856 Z M559 146 L559 700 L501 700 L501 155 C501 93 452 46 391 46 L264 46 C203 46 153 93 153 155 L153 700 L95 700 L95 146 C95 64 166 -6 262 -6 L396 -6 C490 -6 559 64 559 146 L559 146 Z " />
<glyph glyph-name="uring" unicode="&#x16f;" horiz-adv-x="556" d="M92 546 L92 143 C92 55 152 -6 243 -6 L267 -6 C320 -6 371 19 411 60 L421 0 L460 0 L460 546 L405 546 L405 112 C373 68 323 43 275 43 L256 43 C196 43 147 80 147 144 L147 546 L92 546 Z M162 719 L162 703 C162 652 205 606 264 606 L274 606 C332 606 375 652 375 703 L375 719 C375 771 332 817 274 817 L264 817 C205 817 162 771 162 719 L162 719 Z M330 706 C330 672 303 645 271 645 L265 645 C234 645 206 672 206 706 L206 717 C206 751 234 777 265 777 L271 777 C303 777 330 751 330 717 L330 706 Z " />
<glyph glyph-name="Uhungarumlaut" unicode="&#x170;" horiz-adv-x="655" d="M290 889 L207 773 L244 747 L333 860 L290 889 Z M445 889 L362 773 L399 747 L488 860 L445 889 Z M559 146 L559 700 L501 700 L501 155 C501 93 452 46 391 46 L264 46 C203 46 153 93 153 155 L153 700 L95 700 L95 146 C95 64 166 -6 262 -6 L396 -6 C490 -6 559 64 559 146 L559 146 Z " />
<glyph glyph-name="uhungarumlaut" unicode="&#x171;" horiz-adv-x="556" d="M92 546 L92 143 C92 55 152 -6 243 -6 L267 -6 C320 -6 371 19 411 60 L421 0 L460 0 L460 546 L405 546 L405 112 C373 68 323 43 275 43 L256 43 C196 43 147 80 147 144 L147 546 L92 546 Z M444 774 L310 612 L347 585 L487 744 L444 774 Z M289 774 L155 612 L192 585 L332 744 L289 774 Z " />
<glyph glyph-name="Uogonek" unicode="&#x172;" horiz-adv-x="655" d="M559 146 L559 700 L501 700 L501 155 C501 93 452 46 391 46 L264 46 C203 46 153 93 153 155 L153 700 L95 700 L95 146 C95 64 166 -6 262 -6 L330 -6 C293 -41 277 -77 277 -108 C277 -164 318 -185 383 -185 L418 -185 L418 -148 L389 -148 C347 -148 321 -136 321 -106 C321 -82 336 -45 388 -6 L396 -6 C490 -6 559 64 559 146 L559 146 Z " />
<glyph glyph-name="uogonek" unicode="&#x173;" horiz-adv-x="556" d="M92 546 L92 143 C92 55 152 -6 243 -6 L267 -6 C320 -6 371 19 411 60 L418 13 C365 -27 342 -72 342 -108 C342 -164 383 -185 448 -185 L483 -185 L483 -148 L454 -148 C412 -148 386 -136 386 -106 C386 -80 404 -40 460 4 L460 546 L405 546 L405 112 C373 68 323 43 275 43 L256 43 C196 43 147 80 147 144 L147 546 L92 546 Z " />
<glyph glyph-name="Ydieresis" unicode="&#x178;" horiz-adv-x="616" d="M344 0 L344 292 L566 700 L507 700 L314 344 L111 700 L50 700 L286 292 L286 0 L344 0 Z M178 891 L178 776 L238 776 L238 891 L178 891 Z M387 891 L387 776 L446 776 L446 891 L387 891 Z " />
<glyph glyph-name="Zacute" unicode="&#x179;" horiz-adv-x="581" d="M521 52 L128 52 L506 649 L506 700 L75 700 L75 649 L442 649 L60 52 L60 0 L521 0 L521 52 Z M400 902 L184 812 L204 765 L422 850 L400 902 Z " />
<glyph glyph-name="zacute" unicode="&#x17a;" horiz-adv-x="506" d="M434 546 L73 546 L73 497 L369 497 L61 49 L61 0 L451 0 L451 49 L126 49 L434 497 L434 546 Z M367 760 L143 640 L162 599 L388 714 L367 760 Z " />
<glyph glyph-name="Zdotaccent" unicode="&#x17b;" horiz-adv-x="581" d="M521 52 L128 52 L506 649 L506 700 L75 700 L75 649 L442 649 L60 52 L60 0 L521 0 L521 52 Z M263 902 L263 794 L318 794 L318 902 L263 902 Z " />
<glyph glyph-name="zdotaccent" unicode="&#x17c;" horiz-adv-x="506" d="M434 546 L73 546 L73 497 L369 497 L61 49 L61 0 L451 0 L451 49 L126 49 L434 497 L434 546 Z M222 754 L222 638 L277 638 L277 754 L222 754 Z " />
<glyph glyph-name="Zcaron" unicode="&#x17d;" horiz-adv-x="588" d="M524 52 L131 52 L509 649 L509 700 L78 700 L78 649 L445 649 L63 52 L63 0 L524 0 L524 52 Z M302 764 L443 850 L421 898 L294 820 L169 898 L147 853 L288 764 L302 764 Z " />
<glyph glyph-name="zcaron" unicode="&#x17e;" horiz-adv-x="506" d="M434 546 L73 546 L73 497 L369 497 L62 49 L62 0 L451 0 L451 49 L126 49 L434 497 L434 546 Z M263 600 L388 703 L367 746 L256 654 L146 746 L124 706 L249 600 L263 600 Z " />
<glyph glyph-name="uni0218" unicode="&#x218;" horiz-adv-x="609" d="M70 200 L70 146 C70 64 150 -6 259 -6 L349 -6 C458 -6 539 50 539 138 L539 205 C539 357 152 375 152 513 L152 564 C152 615 200 654 259 654 L339 654 C407 654 461 610 461 552 L461 499 L519 499 L519 562 C519 639 445 706 344 706 L251 706 C161 706 94 644 94 573 L94 510 C94 325 481 305 481 197 L481 148 C481 83 421 46 344 46 L261 46 C186 46 128 93 128 155 L128 200 L70 200 Z M241 -241 C274 -228 292 -197 292 -170 L292 -55 L347 -55 L347 -170 C347 -239 300 -281 241 -295 L241 -241 Z " />
<glyph glyph-name="uni0219" unicode="&#x219;" horiz-adv-x="551" d="M416 116 C416 78 375 43 326 43 L234 43 C178 43 136 76 136 114 L136 143 L81 143 L81 112 C81 51 142 -6 229 -6 L328 -6 C409 -6 470 49 470 113 L470 165 C470 308 152 271 152 386 L152 433 C152 470 193 503 242 503 L301 503 C353 503 399 475 399 432 L399 404 L451 404 L451 433 C451 502 387 552 304 552 L237 552 C153 552 96 496 96 435 L96 380 C96 223 416 259 416 162 L416 116 Z M212 -241 C245 -228 263 -197 263 -170 L263 -55 L318 -55 L318 -170 C318 -239 271 -281 212 -295 L212 -241 Z " />
<glyph glyph-name="uni021A" unicode="&#x21a;" horiz-adv-x="494" d="M280 0 L280 649 L467 649 L467 700 L26 700 L26 649 L222 649 L222 0 L280 0 Z M173 -241 C206 -228 224 -197 224 -170 L224 -55 L279 -55 L279 -170 C279 -239 232 -281 173 -295 L173 -241 Z " />
<glyph glyph-name="uni021B" unicode="&#x21b;" horiz-adv-x="309" d="M269 546 L155 546 L155 700 L116 700 L100 546 L25 546 L25 497 L100 497 L100 142 C100 52 162 -6 267 -6 L267 42 C202 42 155 88 155 142 L155 497 L269 497 L269 546 Z M106 -241 C139 -228 157 -197 157 -170 L157 -55 L212 -55 L212 -170 C212 -239 165 -281 106 -295 L106 -241 Z " />
<glyph glyph-name="circumflex" unicode="&#x2c6;" horiz-adv-x="368" d="M177 746 L52 639 L74 600 L184 691 L295 600 L316 641 L191 746 L177 746 Z " />
<glyph glyph-name="caron" unicode="&#x2c7;" horiz-adv-x="368" d="M191 600 L316 703 L295 746 L184 654 L74 746 L52 706 L177 600 L191 600 Z " />
<glyph glyph-name="breve" unicode="&#x2d8;" horiz-adv-x="437" d="M318 742 L318 717 C318 685 292 659 262 659 L175 659 C144 659 119 685 119 717 L119 742 L73 742 L73 713 C73 659 117 615 172 615 L265 615 C319 615 365 659 365 713 L365 742 L318 742 Z " />
<glyph glyph-name="dotaccent" unicode="&#x2d9;" horiz-adv-x="221" d="M83 754 L83 638 L138 638 L138 754 L83 754 Z " />
<glyph glyph-name="ring" unicode="&#x2da;" horiz-adv-x="313" d="M50 718 L50 702 C50 651 93 605 152 605 L162 605 C220 605 263 651 263 702 L263 718 C263 770 220 816 162 816 L152 816 C93 816 50 770 50 718 L50 718 Z M218 705 C218 671 191 644 159 644 L153 644 C122 644 94 671 94 705 L94 716 C94 750 122 776 153 776 L159 776 C191 776 218 750 218 716 L218 705 Z " />
<glyph glyph-name="ogonek" unicode="&#x2db;" horiz-adv-x="275" d="M208 -148 L179 -148 C137 -148 111 -136 111 -106 C111 -80 129 -40 191 3 L143 13 C90 -27 67 -72 67 -108 C67 -164 108 -185 173 -185 L208 -185 L208 -148 Z " />
<glyph glyph-name="tilde" unicode="&#x2dc;" horiz-adv-x="408" d="M98 634 L98 645 C98 673 103 688 124 688 C164 688 229 630 296 630 C338 630 356 654 356 693 L356 732 L311 732 L311 707 C311 689 302 678 284 678 C226 678 169 737 112 737 C64 737 53 707 53 655 L53 634 L98 634 Z " />
<glyph glyph-name="hungarumlaut" unicode="&#x2dd;" horiz-adv-x="480" d="M208 774 L74 612 L111 585 L251 744 L208 774 Z M363 774 L229 612 L266 585 L406 744 L363 774 Z " />
<glyph glyph-name="uni0401" unicode="&#x401;" horiz-adv-x="593" d="M503 52 L161 52 L161 340 L470 340 L470 391 L161 391 L161 649 L493 649 L493 700 L103 700 L103 0 L503 0 L503 52 Z M171 891 L171 776 L231 776 L231 891 L171 891 Z M380 891 L380 776 L439 776 L439 891 L380 891 Z " />
<glyph glyph-name="uni0402" unicode="&#x402;" horiz-adv-x="745" d="M462 700 L21 700 L21 649 L217 649 L217 0 L275 0 L275 321 C275 381 326 426 386 426 L502 426 C564 426 614 379 614 317 L614 159 C614 97 564 50 502 50 L440 50 L440 -1 L507 -1 C602 -1 671 68 671 150 L671 326 C671 408 602 478 507 478 L388 478 C349 478 307 457 275 428 L275 649 L462 649 L462 700 Z " />
<glyph glyph-name="uni0403" unicode="&#x403;" horiz-adv-x="475" d="M161 0 L161 648 L454 648 L454 700 L103 700 L103 0 L161 0 Z M386 902 L170 812 L190 765 L408 850 L386 902 Z " />
<glyph glyph-name="uni0404" unicode="&#x404;" horiz-adv-x="651" d="M502 193 L502 155 C502 93 453 46 391 46 L260 46 C198 46 149 93 149 155 L149 340 L413 340 L413 391 L149 391 L149 545 C149 607 198 654 260 654 L391 654 C453 654 502 607 502 545 L502 512 L560 512 L560 554 C560 636 491 706 396 706 L257 706 C161 706 91 636 91 554 L91 146 C91 64 161 -6 257 -6 L396 -6 C491 -6 560 64 560 146 L560 193 L502 193 Z " />
<glyph glyph-name="uni0405" unicode="&#x405;" horiz-adv-x="609" d="M70 200 L70 146 C70 64 150 -6 259 -6 L349 -6 C458 -6 539 50 539 138 L539 205 C539 357 152 375 152 513 L152 564 C152 615 200 654 259 654 L339 654 C407 654 461 610 461 552 L461 499 L519 499 L519 562 C519 639 445 706 344 706 L251 706 C161 706 94 644 94 573 L94 510 C94 325 481 305 481 197 L481 148 C481 83 421 46 344 46 L261 46 C186 46 128 93 128 155 L128 200 L70 200 Z " />
<glyph glyph-name="uni0406" unicode="&#x406;" horiz-adv-x="264" d="M161 0 L161 700 L103 700 L103 0 L161 0 Z " />
<glyph glyph-name="uni0407" unicode="&#x407;" horiz-adv-x="264" d="M161 0 L161 700 L103 700 L103 0 L161 0 Z M-4 891 L-4 776 L56 776 L56 891 L-4 891 Z M205 891 L205 776 L264 776 L264 891 L205 891 Z " />
<glyph glyph-name="uni0408" unicode="&#x408;" horiz-adv-x="278" d="M117 700 L117 -22 C117 -98 57 -156 -19 -156 L-57 -156 L-57 -207 L-19 -207 C91 -207 175 -131 175 -22 L175 700 L117 700 Z " />
<glyph glyph-name="uni0409" unicode="&#x409;" horiz-adv-x="1051" d="M114 700 L114 143 C114 88 70 47 16 47 L7 47 L7 -5 L16 -5 C105 -5 172 55 172 143 L172 649 L525 649 L525 0 L815 0 C910 0 979 74 979 163 L979 236 C979 327 905 403 804 403 L583 403 L583 701 L114 700 Z M799 352 C867 352 921 303 921 238 L921 161 C921 99 872 52 810 52 L583 52 L583 352 L799 352 Z " />
<glyph glyph-name="uni040A" unicode="&#x40a;" horiz-adv-x="1040" d="M161 0 L161 335 L514 335 L514 0 L804 0 C899 0 968 74 968 163 L968 236 C968 327 894 403 793 403 L572 403 L572 701 L514 701 L514 387 L161 387 L161 700 L103 700 L103 0 L161 0 Z M788 352 C857 352 911 303 911 238 L911 161 C911 99 861 52 799 52 L572 52 L572 352 L788 352 Z " />
<glyph glyph-name="uni040B" unicode="&#x40b;" horiz-adv-x="745" d="M275 0 L275 317 C275 379 325 426 386 426 L502 426 C564 426 614 379 614 317 L614 0 L671 0 L671 326 C671 408 602 478 507 478 L388 478 C349 478 307 457 275 428 L275 649 L462 649 L462 700 L21 700 L21 649 L217 649 L217 0 L275 0 Z " />
<glyph glyph-name="uni040C" unicode="&#x40c;" horiz-adv-x="622" d="M161 0 L161 331 L281 331 L517 0 L584 0 L325 360 L537 700 L472 700 L275 383 L161 383 L161 700 L103 700 L103 0 L161 0 Z M420 902 L204 812 L224 765 L442 850 L420 902 Z " />
<glyph glyph-name="uni040E" unicode="&#x40e;" horiz-adv-x="589" d="M477 700 L287 313 L122 700 L63 700 L257 251 L232 200 C198 131 161 51 85 51 L75 51 L75 0 L87 0 C201 0 235 87 283 185 L535 700 L477 700 Z M384 896 L384 875 C384 852 365 833 343 833 L226 833 C203 833 185 852 185 875 L185 896 L139 896 L139 868 C139 822 176 784 223 784 L346 784 C392 784 431 822 431 868 L431 896 L384 896 Z " />
<glyph glyph-name="uni040F" unicode="&#x40f;" horiz-adv-x="675" d="M103 700 L103 0 L309 0 L309 -122 L366 -122 L366 0 L572 0 L572 700 L514 700 L514 52 L161 52 L161 700 L103 700 Z " />
<glyph glyph-name="uni0410" unicode="&#x410;" horiz-adv-x="653" d="M298 705 L50 0 L109 0 L186 225 L466 225 L544 0 L603 0 L356 705 L298 705 Z M326 630 L448 277 L204 277 L326 630 Z " />
<glyph glyph-name="uni0411" unicode="&#x411;" horiz-adv-x="628" d="M454 700 L103 700 L103 0 L393 0 C488 0 557 74 557 163 L557 236 C557 327 483 403 382 403 L161 403 L161 648 L454 648 L454 700 Z M377 352 C445 352 499 303 499 238 L499 161 C499 99 450 52 388 52 L161 52 L161 352 L377 352 Z " />
<glyph glyph-name="uni0412" unicode="&#x412;" horiz-adv-x="628" d="M103 0 L393 0 C488 0 557 74 557 163 L557 220 C557 288 510 347 441 369 C483 396 510 439 510 487 L510 548 C510 630 440 700 346 700 L103 700 L103 0 Z M377 336 C445 336 499 287 499 222 L499 161 C499 99 450 52 388 52 L161 52 L161 336 L377 336 Z M341 648 C402 648 452 604 452 546 L452 489 C452 432 402 388 341 388 L161 388 L161 648 L341 648 Z " />
<glyph glyph-name="uni0413" unicode="&#x413;" horiz-adv-x="475" d="M161 0 L161 648 L454 648 L454 700 L103 700 L103 0 L161 0 Z " />
<glyph glyph-name="uni0414" unicode="&#x414;" horiz-adv-x="598" d="M551 52 L481 52 L481 700 L205 700 C200 468 167 251 101 52 L25 52 L25 -123 L83 -123 L83 0 L493 0 L493 -122 L551 -122 L551 52 Z M260 649 L423 649 L423 52 L158 52 C214 226 249 424 260 649 L260 649 Z " />
<glyph glyph-name="uni0415" unicode="&#x415;" horiz-adv-x="593" d="M503 52 L161 52 L161 340 L470 340 L470 391 L161 391 L161 649 L493 649 L493 700 L103 700 L103 0 L503 0 L503 52 Z " />
<glyph glyph-name="uni0416" unicode="&#x416;" horiz-adv-x="980" d="M85 700 L297 360 L38 0 L105 0 L340 331 L461 331 L461 0 L519 0 L519 331 L639 331 L875 0 L942 0 L683 360 L896 700 L830 700 L633 383 L519 383 L519 700 L461 700 L461 383 L346 383 L150 700 L85 700 Z " />
<glyph glyph-name="uni0417" unicode="&#x417;" horiz-adv-x="631" d="M540 154 L540 242 C540 297 503 347 447 371 C487 396 513 437 513 482 L513 567 C513 641 450 706 366 706 L248 706 C164 706 103 641 103 567 L103 526 L160 526 L160 558 C160 613 201 654 250 654 L361 654 C413 654 456 613 456 558 L456 490 C456 435 410 394 356 394 L267 394 L267 342 L360 342 C428 342 482 295 482 233 L482 163 C482 97 433 46 372 46 L252 46 C191 46 141 93 141 156 L141 193 L83 193 L83 147 C83 65 154 -5 250 -5 L377 -5 C471 -5 540 68 540 154 L540 154 Z " />
<glyph glyph-name="uni0418" unicode="&#x418;" horiz-adv-x="675" d="M163 0 L514 594 L514 0 L572 0 L572 700 L512 700 L161 106 L161 700 L103 700 L103 0 L163 0 Z " />
<glyph glyph-name="uni0419" unicode="&#x419;" horiz-adv-x="675" d="M445 896 L445 875 C445 852 426 833 404 833 L287 833 C264 833 246 852 246 875 L246 896 L200 896 L200 868 C200 822 237 784 284 784 L407 784 C453 784 492 822 492 868 L492 896 L445 896 Z M163 0 L514 594 L514 0 L572 0 L572 700 L512 700 L161 106 L161 700 L103 700 L103 0 L163 0 Z " />
<glyph glyph-name="uni041A" unicode="&#x41a;" horiz-adv-x="622" d="M161 0 L161 331 L281 331 L517 0 L584 0 L325 360 L537 700 L472 700 L275 383 L161 383 L161 700 L103 700 L103 0 L161 0 Z " />
<glyph glyph-name="uni041B" unicode="&#x41b;" horiz-adv-x="690" d="M123 700 L123 143 C123 88 79 47 24 47 L15 47 L15 -5 L24 -5 C114 -5 181 55 181 143 L181 649 L530 649 L530 0 L588 0 L588 701 L123 700 Z " />
<glyph glyph-name="uni041C" unicode="&#x41c;" horiz-adv-x="823" d="M168 0 L168 589 L385 150 L437 150 L655 591 L655 0 L713 0 L713 700 L653 700 L412 213 L172 700 L110 700 L110 0 L168 0 Z " />
<glyph glyph-name="uni041D" unicode="&#x41d;" horiz-adv-x="675" d="M161 0 L161 335 L514 335 L514 0 L572 0 L572 701 L514 701 L514 387 L161 387 L161 700 L103 700 L103 0 L161 0 Z " />
<glyph glyph-name="uni041E" unicode="&#x41e;" horiz-adv-x="651" d="M260 46 C198 46 149 93 149 155 L149 545 C149 607 198 654 260 654 L391 654 C453 654 502 607 502 545 L502 155 C502 93 453 46 391 46 L260 46 Z M396 -6 C491 -6 560 64 560 146 L560 554 C560 636 491 706 396 706 L257 706 C161 706 91 636 91 554 L91 146 C91 64 161 -6 257 -6 L396 -6 Z " />
<glyph glyph-name="uni041F" unicode="&#x41f;" horiz-adv-x="675" d="M161 0 L161 649 L514 649 L514 0 L572 0 L572 700 L103 700 L103 0 L161 0 Z " />
<glyph glyph-name="uni0420" unicode="&#x420;" horiz-adv-x="599" d="M161 0 L161 265 L370 265 C464 265 533 338 533 415 L533 559 C533 638 460 700 358 700 L103 700 L103 0 L161 0 Z M353 648 C422 648 476 609 476 550 L476 425 C476 366 426 317 365 317 L161 317 L161 648 L353 648 Z " />
<glyph glyph-name="uni0421" unicode="&#x421;" horiz-adv-x="651" d="M486 221 L486 155 C486 93 437 46 375 46 L260 46 C198 46 149 93 149 155 L149 545 C149 607 198 654 260 654 L375 654 C437 654 486 607 486 545 L486 484 L544 484 L544 554 C544 636 474 706 380 706 L257 706 C161 706 91 636 91 554 L91 146 C91 64 161 -6 257 -6 L380 -6 C474 -6 544 64 544 146 L544 221 L486 221 Z " />
<glyph glyph-name="uni0422" unicode="&#x422;" horiz-adv-x="494" d="M280 0 L280 649 L467 649 L467 700 L26 700 L26 649 L222 649 L222 0 L280 0 Z " />
<glyph glyph-name="uni0423" unicode="&#x423;" horiz-adv-x="583" d="M477 700 L287 313 L122 700 L63 700 L257 251 L232 200 C198 131 161 51 85 51 L75 51 L75 0 L87 0 C201 0 235 87 283 185 L535 700 L477 700 Z " />
<glyph glyph-name="uni0424" unicode="&#x424;" horiz-adv-x="726" d="M395 0 L395 74 L486 74 C581 74 650 144 650 226 L650 474 C650 556 581 626 486 626 L395 626 L395 700 L337 700 L337 626 L242 626 C146 626 76 556 76 474 L76 226 C76 144 146 74 242 74 L337 74 L337 0 L395 0 Z M245 126 C183 126 134 173 134 235 L134 465 C134 527 183 574 245 574 L337 574 L337 126 L245 126 Z M481 574 C543 574 592 527 592 465 L592 235 C592 173 543 126 481 126 L395 126 L395 574 L481 574 Z " />
<glyph glyph-name="uni0425" unicode="&#x425;" horiz-adv-x="655" d="M514 700 L329 412 L141 700 L76 700 L294 366 L53 0 L117 0 L327 317 L534 0 L599 0 L362 361 L579 700 L514 700 Z " />
<glyph glyph-name="uni0426" unicode="&#x426;" horiz-adv-x="691" d="M161 700 L103 700 L103 0 L584 0 L584 -122 L642 -122 L642 52 L572 52 L572 700 L514 700 L514 52 L161 52 L161 700 Z " />
<glyph glyph-name="uni0427" unicode="&#x427;" horiz-adv-x="612" d="M70 700 L70 406 C70 324 138 254 230 254 L330 254 C375 254 420 276 451 309 L451 0 L509 0 L509 701 L451 701 L451 410 C451 353 400 306 340 306 L239 306 C177 306 128 353 128 415 L128 700 L70 700 Z " />
<glyph glyph-name="uni0428" unicode="&#x428;" horiz-adv-x="1000" d="M840 700 L840 52 L529 52 L529 700 L471 700 L471 52 L161 52 L161 700 L103 700 L103 0 L897 0 L897 700 L840 700 Z " />
<glyph glyph-name="uni0429" unicode="&#x429;" horiz-adv-x="1015" d="M840 700 L840 52 L529 52 L529 700 L471 700 L471 52 L161 52 L161 700 L103 700 L103 0 L910 0 L910 -122 L967 -122 L967 52 L897 52 L897 700 L840 700 Z " />
<glyph glyph-name="uni042A" unicode="&#x42a;" horiz-adv-x="752" d="M284 700 L21 700 L21 648 L226 648 L226 0 L516 0 C611 0 680 74 680 163 L680 236 C680 327 606 403 505 403 L284 403 L284 700 Z M500 352 C568 352 622 303 622 238 L622 161 C622 99 573 52 511 52 L284 52 L284 352 L500 352 Z " />
<glyph glyph-name="uni042B" unicode="&#x42b;" horiz-adv-x="852" d="M103 0 L393 0 C488 0 557 74 557 163 L557 236 C557 327 483 403 382 403 L161 403 L161 700 L103 700 L103 0 Z M377 352 C445 352 499 303 499 238 L499 161 C499 99 450 52 388 52 L161 52 L161 352 L377 352 Z M749 0 L749 700 L691 700 L691 0 L749 0 Z " />
<glyph glyph-name="uni042C" unicode="&#x42c;" horiz-adv-x="629" d="M103 0 L393 0 C488 0 557 74 557 163 L557 236 C557 327 483 403 382 403 L161 403 L161 700 L103 700 L103 0 Z M377 352 C445 352 499 303 499 238 L499 161 C499 99 450 52 388 52 L161 52 L161 352 L377 352 Z " />
<glyph glyph-name="uni042D" unicode="&#x42d;" horiz-adv-x="657" d="M94 193 L94 146 C94 64 163 -6 258 -6 L397 -6 C493 -6 563 64 563 146 L563 554 C563 636 493 706 397 706 L258 706 C163 706 94 636 94 554 L94 512 L152 512 L152 545 C152 607 201 654 263 654 L394 654 C456 654 505 607 505 545 L505 391 L241 391 L241 340 L505 340 L505 155 C505 93 456 46 394 46 L263 46 C201 46 152 93 152 155 L152 193 L94 193 Z " />
<glyph glyph-name="uni042E" unicode="&#x42e;" horiz-adv-x="962" d="M161 0 L161 335 L402 335 L402 146 C402 64 472 -6 568 -6 L707 -6 C802 -6 871 64 871 146 L871 554 C871 636 802 706 707 706 L568 706 C472 706 402 636 402 554 L402 387 L161 387 L161 700 L103 700 L103 0 L161 0 Z M571 46 C509 46 460 93 460 155 L460 545 C460 607 509 654 571 654 L702 654 C764 654 813 607 813 545 L813 155 C813 93 764 46 702 46 L571 46 Z " />
<glyph glyph-name="uni042F" unicode="&#x42f;" horiz-adv-x="628" d="M525 0 L525 700 L254 700 C153 700 79 638 79 559 L79 415 C79 353 135 291 215 279 L77 0 L140 0 L276 277 L467 277 L467 0 L525 0 Z M137 550 C137 609 191 648 259 648 L467 648 L467 328 L248 328 C186 328 137 374 137 424 L137 550 Z " />
<glyph glyph-name="uni0430" unicode="&#x430;" horiz-adv-x="567" d="M325 552 L257 552 C173 552 109 498 109 427 L109 399 L164 399 L164 424 C164 471 210 503 263 503 L320 503 C374 503 420 461 420 406 L420 333 L233 307 C155 296 82 254 82 183 L82 120 C82 54 140 -6 216 -6 L282 -6 C333 -6 385 21 425 66 L436 0 L475 0 L475 410 C475 487 411 552 325 552 L325 552 Z M284 43 L223 43 C177 43 137 80 137 125 L137 178 C137 219 185 251 238 259 L420 289 L420 122 C387 74 335 43 284 43 L284 43 Z " />
<glyph glyph-name="uni0431" unicode="&#x431;" horiz-adv-x="560" d="M317 -6 C409 -6 476 63 476 143 L476 223 C476 303 409 372 317 372 L245 372 C204 372 167 356 138 331 L138 390 C138 451 187 499 246 499 L388 499 C428 499 455 529 455 563 L455 590 L403 590 L403 579 C403 561 390 548 373 548 L245 548 C152 548 83 479 83 399 L83 143 C83 63 152 -6 245 -6 L317 -6 Z M246 43 C187 43 138 90 138 151 L138 219 C138 278 188 323 246 323 L314 323 C372 323 421 276 421 215 L421 151 C421 90 372 43 314 43 L246 43 Z " />
<glyph glyph-name="uni0432" unicode="&#x432;" horiz-adv-x="557" d="M351 0 C430 0 488 61 488 129 L488 177 C488 226 453 269 409 290 C439 312 459 345 459 384 L459 417 C459 485 400 546 321 546 L95 546 L95 0 L351 0 Z M349 258 C394 258 433 221 433 175 L433 134 C433 87 394 49 349 49 L150 49 L150 258 L349 258 Z M320 497 C365 497 404 460 404 415 L404 390 C404 344 372 306 327 306 L150 306 L150 497 L320 497 Z " />
<glyph glyph-name="uni0433" unicode="&#x433;" horiz-adv-x="414" d="M150 0 L150 497 L397 497 L397 546 L95 546 L95 0 L150 0 Z " />
<glyph glyph-name="uni0434" unicode="&#x434;" horiz-adv-x="550" d="M517 49 L445 49 L445 546 L181 546 C176 375 148 201 85 49 L7 49 L7 -123 L62 -123 L62 0 L462 0 L462 -122 L517 -122 L517 49 Z M233 497 L390 497 L390 49 L138 49 C192 185 223 330 233 497 L233 497 Z " />
<glyph glyph-name="uni0435" unicode="&#x435;" horiz-adv-x="560" d="M476 395 C476 480 409 552 318 552 L244 552 C151 552 83 480 83 395 L83 149 C83 65 151 -6 244 -6 L318 -6 C409 -6 476 65 476 149 L476 158 L421 158 L421 154 C421 91 371 43 311 43 L248 43 C188 43 138 91 138 154 L138 257 L476 257 L476 395 Z M138 392 C138 455 188 503 248 503 L311 503 C371 503 421 455 421 392 L421 302 L138 302 L138 392 Z " />
<glyph glyph-name="uni0436" unicode="&#x436;" horiz-adv-x="810" d="M59 546 L263 285 L25 0 L89 0 L300 258 L377 258 L377 0 L432 0 L432 258 L510 258 L720 0 L784 0 L547 285 L750 546 L686 546 L504 307 L432 307 L432 546 L377 546 L377 307 L306 307 L123 546 L59 546 Z " />
<glyph glyph-name="uni0437" unicode="&#x437;" horiz-adv-x="560" d="M211 252 L337 252 C382 252 421 215 421 170 L421 128 C421 81 382 43 337 43 L222 43 C178 43 138 81 138 128 L138 146 L83 146 L83 123 C83 55 141 -6 218 -6 L339 -6 C417 -6 476 55 476 123 L476 180 C476 224 444 264 400 285 C431 308 451 341 451 376 L451 417 C451 485 392 546 314 546 L238 546 C161 546 103 485 103 417 L103 394 L158 394 L158 413 C158 459 198 497 242 497 L312 497 C357 497 396 459 396 413 L396 383 C396 338 357 301 312 301 L211 301 L211 252 Z " />
<glyph glyph-name="uni0438" unicode="&#x438;" horiz-adv-x="584" d="M150 0 L433 449 L433 0 L488 0 L488 545 L433 545 L150 96 L150 546 L95 546 L95 0 L150 0 Z " />
<glyph glyph-name="uni0439" unicode="&#x439;" horiz-adv-x="584" d="M150 0 L433 449 L433 0 L488 0 L488 545 L433 545 L150 96 L150 546 L95 546 L95 0 L150 0 Z M395 742 L395 717 C395 685 369 659 339 659 L252 659 C221 659 196 685 196 717 L196 742 L150 742 L150 713 C150 659 194 615 249 615 L342 615 C396 615 442 659 442 713 L442 742 L395 742 Z " />
<glyph glyph-name="uni043A" unicode="&#x43a;" horiz-adv-x="528" d="M503 0 L265 285 L469 546 L405 546 L222 307 L150 307 L150 546 L95 546 L95 0 L150 0 L150 258 L228 258 L438 0 L503 0 Z " />
<glyph glyph-name="uni043B" unicode="&#x43b;" horiz-adv-x="597" d="M113 546 L113 139 C113 85 67 42 15 42 L8 42 L8 -6 L15 -6 C103 -6 168 53 168 139 L168 497 L446 497 L446 0 L501 0 L501 545 L113 546 Z " />
<glyph glyph-name="uni043C" unicode="&#x43c;" horiz-adv-x="696" d="M150 0 L150 457 L320 122 L375 122 L546 457 L546 0 L601 0 L601 546 L534 546 L348 181 L163 546 L95 546 L95 0 L150 0 Z " />
<glyph glyph-name="uni043D" unicode="&#x43d;" horiz-adv-x="584" d="M150 0 L150 264 L433 264 L433 0 L488 0 L488 545 L433 545 L433 313 L150 313 L150 546 L95 546 L95 0 L150 0 Z " />
<glyph glyph-name="uni043E" unicode="&#x43e;" horiz-adv-x="560" d="M248 43 C188 43 138 91 138 154 L138 392 C138 455 188 503 248 503 L311 503 C371 503 421 455 421 392 L421 154 C421 91 371 43 311 43 L248 43 Z M318 -6 C409 -6 476 65 476 149 L476 395 C476 480 409 552 318 552 L244 552 C151 552 83 480 83 395 L83 149 C83 65 151 -6 244 -6 L318 -6 Z " />
<glyph glyph-name="uni043F" unicode="&#x43f;" horiz-adv-x="584" d="M150 0 L150 497 L433 497 L433 0 L488 0 L488 546 L95 546 L95 0 L150 0 Z " />
<glyph glyph-name="uni0440" unicode="&#x440;" horiz-adv-x="572" d="M95 546 L95 -207 L150 -207 L150 52 C183 16 224 -6 269 -6 L338 -6 C425 -6 488 69 488 158 L488 389 C488 477 425 552 338 552 L272 552 C224 552 179 527 144 486 L135 546 L95 546 Z M266 503 L324 503 C383 503 433 453 433 388 L433 158 C433 93 384 43 324 43 L267 43 C221 43 179 71 150 117 L150 433 C179 475 220 503 266 503 L266 503 Z " />
<glyph glyph-name="uni0441" unicode="&#x441;" horiz-adv-x="559" d="M467 378 L467 395 C467 480 400 552 309 552 L245 552 C152 552 84 480 84 395 L84 149 C84 65 152 -6 245 -6 L309 -6 C400 -6 467 65 467 149 L467 169 L412 169 L412 154 C412 91 362 43 302 43 L249 43 C189 43 139 91 139 154 L139 392 C139 455 189 503 249 503 L302 503 C362 503 412 455 412 392 L412 378 L467 378 Z " />
<glyph glyph-name="uni0442" unicode="&#x442;" horiz-adv-x="450" d="M18 497 L198 497 L198 0 L253 0 L253 497 L433 497 L433 546 L18 546 L18 497 Z " />
<glyph glyph-name="uni0443" unicode="&#x443;" horiz-adv-x="480" d="M41 546 L234 180 C205 112 157 48 88 48 L83 48 L83 -1 L88 -1 C199 -1 254 82 295 184 L439 546 L383 546 L260 243 L98 546 L41 546 Z " />
<glyph glyph-name="uni0444" unicode="&#x444;" horiz-adv-x="898" d="M653 -6 C746 -6 814 64 814 146 L814 400 C814 482 746 552 653 552 L585 552 C542 552 504 538 476 514 L476 750 L421 750 L421 515 C393 538 356 552 315 552 L247 552 C153 552 83 482 83 400 L83 146 C83 64 153 -6 247 -6 L315 -6 C356 -6 393 7 421 30 L421 -206 L476 -206 L476 31 C504 8 542 -6 585 -6 L653 -6 Z M586 43 C526 43 476 89 476 149 L476 396 C476 457 526 503 586 503 L649 503 C709 503 759 455 759 392 L759 154 C759 91 709 43 649 43 L586 43 Z M248 43 C188 43 138 91 138 154 L138 392 C138 455 188 503 248 503 L311 503 C369 503 421 457 421 396 L421 149 C421 89 369 43 311 43 L248 43 Z " />
<glyph glyph-name="uni0445" unicode="&#x445;" horiz-adv-x="538" d="M109 0 L269 233 L428 0 L491 0 L303 278 L480 546 L415 546 L270 326 L122 546 L58 546 L237 281 L47 0 L109 0 Z " />
<glyph glyph-name="uni0446" unicode="&#x446;" horiz-adv-x="596" d="M95 0 L510 0 L510 -105 L565 -105 L565 49 L488 49 L488 546 L433 546 L433 49 L150 49 L150 546 L95 546 L95 0 Z " />
<glyph glyph-name="uni0447" unicode="&#x447;" horiz-adv-x="541" d="M53 546 L53 328 C53 243 112 184 200 184 L238 184 C294 184 348 208 391 248 L391 0 L446 0 L446 545 L391 545 L391 307 C358 259 303 233 249 233 L217 233 C158 233 108 270 108 334 L108 546 L53 546 Z " />
<glyph glyph-name="uni0448" unicode="&#x448;" horiz-adv-x="802" d="M95 0 L707 0 L707 546 L652 546 L652 49 L428 49 L428 546 L373 546 L373 49 L150 49 L150 546 L95 546 L95 0 Z " />
<glyph glyph-name="uni0449" unicode="&#x449;" horiz-adv-x="814" d="M95 0 L729 0 L729 -105 L784 -105 L784 49 L707 49 L707 546 L652 546 L652 49 L428 49 L428 546 L373 546 L373 49 L150 49 L150 546 L95 546 L95 0 Z " />
<glyph glyph-name="uni044A" unicode="&#x44a;" horiz-adv-x="642" d="M18 497 L198 497 L198 0 L440 0 C527 0 590 65 590 140 L590 203 C590 278 527 343 440 343 L253 343 L253 546 L18 546 L18 497 Z M437 294 C491 294 535 251 535 195 L535 149 C535 92 491 49 437 49 L253 49 L253 294 L437 294 Z " />
<glyph glyph-name="uni044B" unicode="&#x44b;" horiz-adv-x="749" d="M150 546 L95 546 L95 0 L338 0 C425 0 488 65 488 140 L488 203 C488 278 425 343 338 343 L150 343 L150 546 Z M334 294 C388 294 433 251 433 195 L433 149 C433 92 388 49 334 49 L150 49 L150 294 L334 294 Z M653 0 L653 546 L598 546 L598 0 L653 0 Z " />
<glyph glyph-name="uni044C" unicode="&#x44c;" horiz-adv-x="540" d="M150 546 L95 546 L95 0 L338 0 C425 0 488 65 488 140 L488 203 C488 278 425 343 338 343 L150 343 L150 546 Z M334 294 C388 294 433 251 433 195 L433 149 C433 92 388 49 334 49 L150 49 L150 294 L334 294 Z " />
<glyph glyph-name="uni044D" unicode="&#x44d;" horiz-adv-x="560" d="M138 383 L138 392 C138 455 188 503 248 503 L311 503 C372 503 421 455 421 392 L421 310 L213 310 L213 261 L421 261 L421 154 C421 91 372 43 311 43 L248 43 C188 43 138 91 138 154 L138 164 L83 164 L83 146 C83 64 152 -6 245 -6 L312 -6 C407 -6 476 64 476 146 L476 400 C476 482 407 552 312 552 L245 552 C152 552 83 482 83 400 L83 383 L138 383 Z " />
<glyph glyph-name="uni044E" unicode="&#x44e;" horiz-adv-x="810" d="M150 0 L150 264 L334 264 L334 146 C334 64 403 -6 498 -6 L565 -6 C659 -6 727 64 727 146 L727 400 C727 482 659 552 565 552 L498 552 C403 552 334 482 334 400 L334 313 L150 313 L150 546 L95 546 L95 0 L150 0 Z M499 43 C438 43 389 91 389 154 L389 392 C389 455 438 503 499 503 L562 503 C622 503 672 455 672 392 L672 154 C672 91 622 43 562 43 L499 43 Z " />
<glyph glyph-name="uni044F" unicode="&#x44f;" horiz-adv-x="544" d="M449 0 L449 546 L209 546 C123 546 60 481 60 405 L60 339 C60 273 113 214 189 205 L67 0 L126 0 L247 204 L394 204 L394 0 L449 0 Z M115 349 L115 401 C115 455 159 497 210 497 L394 497 L394 253 L210 253 C159 253 115 295 115 349 L115 349 Z " />
<glyph glyph-name="uni0451" unicode="&#x451;" horiz-adv-x="560" d="M476 395 C476 480 409 552 318 552 L244 552 C151 552 83 480 83 395 L83 149 C83 65 151 -6 244 -6 L318 -6 C409 -6 476 65 476 149 L476 158 L421 158 L421 154 C421 91 371 43 311 43 L248 43 C188 43 138 91 138 154 L138 257 L476 257 L476 395 Z M138 392 C138 455 188 503 248 503 L311 503 C371 503 421 455 421 392 L421 302 L138 302 L138 392 Z M357 754 L357 638 L414 638 L414 754 L357 754 Z M145 754 L145 638 L201 638 L201 754 L145 754 Z " />
<glyph glyph-name="uni0452" unicode="&#x452;" horiz-adv-x="577" d="M309 -207 L317 -207 C415 -207 488 -142 488 -44 L488 398 C488 483 429 542 340 542 L303 542 C247 542 192 517 150 477 L150 620 L369 620 L369 657 L150 657 L150 750 L95 750 L95 657 L24 657 L24 620 L95 620 L95 0 L150 0 L150 419 C182 465 238 493 292 493 L324 493 C383 493 433 456 433 392 L433 -44 C433 -109 381 -159 317 -159 L309 -159 L309 -207 Z " />
<glyph glyph-name="uni0453" unicode="&#x453;" horiz-adv-x="414" d="M150 0 L150 497 L397 497 L397 546 L95 546 L95 0 L150 0 Z M351 760 L127 640 L146 599 L372 714 L351 760 Z " />
<glyph glyph-name="uni0454" unicode="&#x454;" horiz-adv-x="560" d="M476 383 L476 400 C476 482 408 552 315 552 L247 552 C153 552 83 482 83 400 L83 146 C83 64 153 -6 247 -6 L315 -6 C408 -6 476 64 476 146 L476 164 L421 164 L421 154 C421 91 371 43 311 43 L248 43 C188 43 138 91 138 154 L138 259 L351 259 L351 308 L138 308 L138 392 C138 455 188 503 248 503 L311 503 C371 503 421 455 421 392 L421 383 L476 383 Z " />
<glyph glyph-name="uni0455" unicode="&#x455;" horiz-adv-x="558" d="M414 116 C414 78 373 43 324 43 L232 43 C176 43 134 76 134 114 L134 143 L79 143 L79 112 C79 51 140 -6 227 -6 L326 -6 C407 -6 468 49 468 113 L468 165 C468 308 150 271 150 386 L150 433 C150 470 191 503 240 503 L299 503 C351 503 397 475 397 432 L397 404 L449 404 L449 433 C449 502 385 552 302 552 L235 552 C151 552 94 496 94 435 L94 380 C94 223 414 259 414 162 L414 116 Z " />
<glyph glyph-name="uni0456" unicode="&#x456;" horiz-adv-x="246" d="M95 546 L95 0 L150 0 L150 546 L95 546 Z M95 750 L95 635 L150 635 L150 750 L95 750 Z " />
<glyph glyph-name="uni0457" unicode="&#x457;" horiz-adv-x="246" d="M-11 754 L-11 638 L45 638 L45 754 L-11 754 Z M201 754 L201 638 L258 638 L258 754 L201 754 Z M95 546 L95 0 L150 0 L150 546 L95 546 Z " />
<glyph glyph-name="uni0458" unicode="&#x458;" horiz-adv-x="247" d="M96 546 L96 -63 C96 -116 42 -159 -28 -159 L-28 -207 C77 -207 151 -149 151 -63 L151 546 L96 546 Z M95 750 L95 635 L150 635 L150 750 L95 750 Z " />
<glyph glyph-name="uni0459" unicode="&#x459;" horiz-adv-x="896" d="M113 546 L113 139 C113 85 67 42 15 42 L8 42 L8 -6 L15 -6 C103 -6 168 53 168 139 L168 497 L451 497 L451 0 L694 0 C781 0 844 65 844 140 L844 203 C844 278 781 343 694 343 L506 343 L506 545 L113 546 Z M690 294 C744 294 789 251 789 195 L789 149 C789 92 744 49 690 49 L506 49 L506 294 L690 294 Z " />
<glyph glyph-name="uni045A" unicode="&#x45a;" horiz-adv-x="878" d="M150 0 L150 264 L433 264 L433 0 L676 0 C763 0 826 65 826 140 L826 203 C826 278 763 343 676 343 L488 343 L488 546 L433 546 L433 313 L150 313 L150 546 L95 546 L95 0 L150 0 Z M672 294 C726 294 771 251 771 195 L771 149 C771 92 726 49 672 49 L488 49 L488 294 L672 294 Z " />
<glyph glyph-name="uni045B" unicode="&#x45b;" horiz-adv-x="578" d="M25 614 L95 614 L95 0 L150 0 L150 419 C183 465 238 493 292 493 L324 493 C384 493 433 456 433 392 L433 0 L488 0 L488 398 C488 483 429 542 341 542 L303 542 C247 542 192 517 150 476 L150 614 L392 614 L392 650 L150 650 L150 750 L95 750 L95 650 L25 650 L25 614 Z " />
<glyph glyph-name="uni045C" unicode="&#x45c;" horiz-adv-x="527" d="M503 0 L265 285 L469 546 L405 546 L222 307 L150 307 L150 546 L95 546 L95 0 L150 0 L150 258 L228 258 L438 0 L503 0 Z M380 760 L156 640 L175 599 L401 714 L380 760 Z " />
<glyph glyph-name="uni045E" unicode="&#x45e;" horiz-adv-x="502" d="M58 546 L251 180 C222 112 174 48 105 48 L100 48 L100 -1 L105 -1 C216 -1 271 82 312 184 L456 546 L400 546 L277 243 L115 546 L58 546 Z M356 742 L356 717 C356 685 330 659 300 659 L213 659 C182 659 157 685 157 717 L157 742 L111 742 L111 713 C111 659 155 615 210 615 L303 615 C357 615 403 659 403 713 L403 742 L356 742 Z " />
<glyph glyph-name="uni045F" unicode="&#x45f;" horiz-adv-x="584" d="M95 0 L264 0 L264 -121 L319 -121 L319 0 L488 0 L488 546 L433 546 L433 49 L150 49 L150 546 L95 546 L95 0 Z " />
<glyph glyph-name="uni0490" unicode="&#x490;" horiz-adv-x="475" d="M161 0 L161 648 L454 648 L454 820 L396 820 L396 700 L103 700 L103 0 L161 0 Z " />
<glyph glyph-name="uni0491" unicode="&#x491;" horiz-adv-x="414" d="M397 497 L397 686 L342 686 L342 546 L95 546 L95 0 L150 0 L150 497 L397 497 Z " />
<glyph glyph-name="endash" unicode="&#x2013;" horiz-adv-x="530" d="M471 330 L58 330 L58 279 L471 279 L471 330 Z " />
<glyph glyph-name="emdash" unicode="&#x2014;" horiz-adv-x="744" d="M686 330 L58 330 L58 279 L686 279 L686 330 Z " />
<glyph glyph-name="quoteleft" unicode="&#x2018;" horiz-adv-x="232" d="M185 750 C126 737 79 695 79 626 L79 511 L134 511 L134 626 C134 653 151 684 185 697 L185 750 Z " />
<glyph glyph-name="quoteright" unicode="&#x2019;" horiz-adv-x="232" d="M47 511 C105 524 153 566 153 635 L153 750 L98 750 L98 635 C98 608 80 577 47 564 L47 511 Z " />
<glyph glyph-name="quotesinglbase" unicode="&#x201a;" horiz-adv-x="232" d="M38 -125 C97 -111 144 -69 144 0 L144 115 L89 115 L89 0 C89 -27 71 -58 38 -71 L38 -125 Z " />
<glyph glyph-name="quotedblleft" unicode="&#x201c;" horiz-adv-x="356" d="M315 750 C256 737 209 695 209 626 L209 511 L264 511 L264 626 C264 653 281 684 315 697 L315 750 Z M180 750 C121 737 74 695 74 626 L74 511 L129 511 L129 626 C129 653 146 684 180 697 L180 750 Z " />
<glyph glyph-name="quotedblright" unicode="&#x201d;" horiz-adv-x="356" d="M47 511 C105 524 153 566 153 635 L153 750 L98 750 L98 635 C98 608 80 577 47 564 L47 511 Z M182 511 C240 524 288 566 288 635 L288 750 L233 750 L233 635 C233 608 215 577 182 564 L182 511 Z " />
<glyph glyph-name="quotedblbase" unicode="&#x201e;" horiz-adv-x="372" d="M38 -125 C97 -111 144 -69 144 0 L144 115 L89 115 L89 0 C89 -27 71 -58 38 -71 L38 -125 Z M178 -125 C237 -111 284 -69 284 0 L284 115 L229 115 L229 0 C229 -27 211 -58 178 -71 L178 -125 Z " />
<glyph glyph-name="dagger" unicode="&#x2020;" horiz-adv-x="494" d="M274 -190 L274 462 L470 462 L470 513 L274 513 L274 790 L218 790 L218 513 L24 513 L24 462 L218 462 L218 -190 L274 -190 Z " />
<glyph glyph-name="daggerdbl" unicode="&#x2021;" horiz-adv-x="494" d="M274 -190 L274 102 L470 102 L470 153 L274 153 L274 447 L470 447 L470 498 L274 498 L274 790 L218 790 L218 498 L24 498 L24 447 L218 447 L218 153 L24 153 L24 102 L218 102 L218 -190 L274 -190 Z " />
<glyph glyph-name="bullet" unicode="&#x2022;" horiz-adv-x="305" d="M174 208 C217 208 253 245 253 289 L253 328 C253 371 217 408 174 408 L131 408 C88 408 53 371 53 328 L53 289 C53 245 88 208 131 208 L174 208 Z " />
<glyph glyph-name="ellipsis" unicode="&#x2026;" horiz-adv-x="697" d="M89 115 L89 0 L144 0 L144 115 L89 115 Z M321 115 L321 0 L376 0 L376 115 L321 115 Z M554 115 L554 0 L609 0 L609 115 L554 115 Z " />
<glyph glyph-name="perthousand" unicode="&#x2030;" horiz-adv-x="1014" d="M157 422 C128 422 104 445 104 476 L104 606 C104 636 128 660 157 660 L195 660 C224 660 248 636 248 606 L248 476 C248 445 224 422 195 422 L157 422 Z M198 376 C257 376 298 420 298 471 L298 611 C298 662 257 706 198 706 L156 706 C96 706 53 662 53 611 L53 471 C53 420 96 376 156 376 L198 376 Z M255 0 L500 700 L445 700 L201 0 L255 0 Z M510 40 C480 40 456 63 456 94 L456 224 C456 254 480 278 510 278 L547 278 C577 278 601 254 601 224 L601 94 C601 63 577 40 547 40 L510 40 Z M550 -6 C610 -6 651 38 651 89 L651 229 C651 280 610 324 550 324 L508 324 C449 324 406 280 406 229 L406 89 C406 38 449 -6 508 -6 L550 -6 Z M822 40 C793 40 769 63 769 94 L769 224 C769 254 793 278 822 278 L860 278 C889 278 913 254 913 224 L913 94 C913 63 889 40 860 40 L822 40 Z M863 -6 C922 -6 963 38 963 89 L963 229 C963 280 922 324 863 324 L821 324 C761 324 718 280 718 229 L718 89 C718 38 761 -6 821 -6 L863 -6 Z " />
<glyph glyph-name="guilsinglleft" unicode="&#x2039;" horiz-adv-x="434" d="M61 239 L364 48 L364 107 L108 269 L364 432 L364 491 L61 299 L61 239 Z " />
<glyph glyph-name="guilsinglright" unicode="&#x203a;" horiz-adv-x="434" d="M373 299 L70 491 L70 432 L326 269 L70 107 L70 48 L373 239 L373 299 Z " />
<glyph glyph-name="fraction" unicode="&#x2044;" horiz-adv-x="344" d="M73 0 L326 700 L265 700 L13 0 L73 0 Z " />
<glyph glyph-name="Euro" unicode="&#x20ac;" horiz-adv-x="668" d="M378 276 L165 276 L165 416 L378 416 L378 459 L165 459 L165 545 C165 607 215 654 277 654 L408 654 C469 654 519 607 519 545 L519 484 L577 484 L577 554 C577 636 508 706 413 706 L274 706 C178 706 108 636 108 554 L108 459 L25 459 L25 416 L108 416 L108 276 L25 276 L25 233 L108 233 L108 146 C108 64 178 -6 274 -6 L413 -6 C508 -6 577 64 577 146 L577 221 L519 221 L519 155 C519 93 469 46 408 46 L277 46 C215 46 165 93 165 155 L165 233 L378 233 L378 276 Z " />
<glyph glyph-name="uni2116" unicode="&#x2116;" horiz-adv-x="961" d="M161 0 L161 592 L512 0 L572 0 L572 701 L514 701 L514 108 L163 700 L103 700 L103 0 L161 0 Z M808 269 C866 269 908 313 908 363 L908 506 C908 556 866 599 808 599 L766 599 C706 599 664 556 664 506 L664 363 C664 313 706 269 766 269 L808 269 Z M767 308 C735 308 708 334 708 369 L708 500 C708 535 735 560 767 560 L805 560 C837 560 864 535 864 500 L864 369 C864 334 837 308 805 308 L767 308 Z M665 168 L908 168 L908 215 L665 215 L665 168 Z " />
<glyph glyph-name="trademark" unicode="&#x2122;" horiz-adv-x="678" d="M326 347 L326 624 L431 418 L472 418 L571 619 L571 347 L608 347 L608 695 L568 695 L451 456 L330 695 L290 695 L290 347 L326 347 Z M159 347 L159 659 L249 659 L249 695 L28 695 L28 659 L122 659 L122 347 L159 347 Z " />
<glyph glyph-name="minus" unicode="&#x2212;" horiz-adv-x="442" d="M402 378 L40 378 L40 327 L402 327 L402 378 Z " />
<glyph glyph-name="apple" unicode="&#xf8ff;" horiz-adv-x="692" d="M54 288 C54 129 183 0 342 0 C501 0 630 129 630 288 C630 447 501 576 342 576 C183 576 54 447 54 288 L54 288 Z M274 115 L276 121 L325 131 L325 403 L223 398 L205 344 L194 346 L200 419 L482 419 L487 346 L476 344 L459 398 L357 403 L357 328 L391 328 C436 328 468 310 468 265 C468 220 438 194 396 194 L378 194 L378 201 L392 201 C429 201 438 232 438 260 C438 290 423 320 384 320 L357 320 L357 131 L406 121 L405 115 L274 115 Z " />
<glyph glyph-name="fi" unicode="&#xfb01;" horiz-adv-x="521" d="M150 0 L150 497 L371 497 L371 0 L426 0 L426 546 L150 546 L150 586 C150 650 203 702 264 702 L426 702 L426 750 L267 750 C170 750 95 683 95 586 L95 546 L28 546 L28 497 L95 497 L95 0 L150 0 Z " />
<glyph glyph-name="fl" unicode="&#xfb02;" horiz-adv-x="521" d="M150 0 L150 497 L263 497 L263 546 L150 546 L150 586 C150 650 204 702 267 702 L371 702 L371 0 L426 0 L426 750 L267 750 C170 750 95 683 95 586 L95 546 L28 546 L28 497 L95 497 L95 0 L150 0 Z " />
</font>
</svg>
